<svg width="67" height="67" viewBox="0 0 67 67" fill="none" xmlns="http://www.w3.org/2000/svg">
<g clip-path="url(#clip0)">
<g filter="url(#filter0_d)">
<circle cx="30" cy="30" r="30" fill="#25D366"/>
<path d="M37.3308 33.216C37.0112 33.0562 34.9338 32.0974 34.6142 31.9376C34.2946 31.7778 33.975 31.7778 33.6554 32.0974C33.3358 32.417 32.6966 33.3758 32.377 33.6954C32.2172 34.015 31.8976 34.015 31.578 33.8552C30.4594 33.3758 29.3408 32.7366 28.382 31.9376C27.583 31.1386 26.784 30.1798 26.1448 29.221C25.985 28.9014 26.1448 28.5818 26.3046 28.422C26.4644 28.2622 26.6242 27.9426 26.9438 27.7828C27.1036 27.623 27.2634 27.3034 27.2634 27.1436C27.4232 26.9838 27.4232 26.6642 27.2634 26.5044C27.1036 26.3446 26.3046 24.427 25.985 23.628C25.8252 22.5094 25.5056 22.5094 25.186 22.5094C25.0262 22.5094 24.7066 22.5094 24.387 22.5094C24.0674 22.5094 23.588 22.829 23.4282 22.9888C22.4694 23.9476 21.99 25.0662 21.99 26.3446C22.1498 27.7828 22.6292 29.221 23.588 30.4994C25.3458 33.0562 27.583 35.1336 30.2996 36.412C31.0986 36.7316 31.7378 37.0512 32.5368 37.211C33.3358 37.5306 34.1348 37.5306 35.0936 37.3708C36.2122 37.211 37.171 36.412 37.8102 35.4532C38.1298 34.814 38.1298 34.1748 37.97 33.5356C37.97 33.5356 37.6504 33.3758 37.3308 33.216ZM41.3258 18.6742C35.0936 12.4419 25.0262 12.4419 18.794 18.6742C13.6804 23.7878 12.7216 31.618 16.2372 37.8502L14 46L22.4694 43.7628C24.8664 45.0412 27.4232 45.6804 29.98 45.6804C38.769 45.6804 45.8003 38.6492 45.8003 29.8602C45.9601 25.7054 44.2022 21.7104 41.3258 18.6742ZM37.0112 41.0462C34.9338 42.3246 32.5368 43.1236 29.98 43.1236C27.583 43.1236 25.3458 42.4844 23.2684 41.3658L22.789 41.0462L17.8352 42.3246L19.1136 37.5306L18.794 37.0512C14.9588 30.6592 16.8764 22.6692 23.1086 18.6742C29.3408 14.6792 37.3308 16.7566 41.166 22.829C45.0012 29.0612 43.2434 37.211 37.0112 41.0462Z" fill="white"/>
</g>
</g>
<defs>
<filter id="filter0_d" x="-6" y="-2" width="72" height="72" filterUnits="userSpaceOnUse" color-interpolation-filters="sRGB">
<feFlood flood-opacity="0" result="BackgroundImageFix"/>
<feColorMatrix in="SourceAlpha" type="matrix" values="0 0 0 0 0 0 0 0 0 0 0 0 0 0 0 0 0 0 127 0"/>
<feOffset dy="4"/>
<feGaussianBlur stdDeviation="3"/>
<feColorMatrix type="matrix" values="0 0 0 0 0 0 0 0 0 0 0 0 0 0 0 0 0 0 0.25 0"/>
<feBlend mode="normal" in2="BackgroundImageFix" result="effect1_dropShadow"/>
<feBlend mode="normal" in="SourceGraphic" in2="effect1_dropShadow" result="shape"/>
</filter>
<clipPath id="clip0">
<rect width="67" height="67" fill="white"/>
</clipPath>
</defs>
</svg>
