<svg width="79" height="35" viewBox="0 0 79 35" fill="none" xmlns="http://www.w3.org/2000/svg">
<path d="M10.3892 2.50477C11.1047 3.09363 12.4629 3.91311 14.5839 4.0426V28.8682H1.85688V11.0276C2.68975 10.613 3.45467 10.0741 4.12535 9.42927C5.3541 8.24589 6.6925 6.23546 6.5942 3.14656L10.3854 2.50477H10.3892ZM10.8183 1.08698L5.16979 2.04635C6.12633 8.38767 0.53833 10.1523 0.53833 10.1523V30.1905H15.9072V2.70515C15.6492 2.72689 15.4015 2.73634 15.1652 2.73634C12.1349 2.73634 10.8221 1.08981 10.8221 1.08981L10.8183 1.08698Z" fill="#007A9B"/>
<path d="M25.4007 6.5389C25.6338 6.63279 25.8582 6.83947 26.0737 7.15895C26.3149 7.52588 26.5312 7.9086 26.7211 8.30452C26.9366 8.74561 27.167 9.21506 27.4121 9.71286C27.6524 10.2008 27.9268 10.6711 28.2335 11.1203C28.523 11.5476 28.8636 11.938 29.2476 12.2829C29.6136 12.6117 30.06 12.838 30.5416 12.9388C30.6678 12.9961 30.7996 13.0401 30.9348 13.0702C31.069 13.0986 31.1362 13.1647 31.1362 13.2706C31.1362 13.3405 31.0842 13.4284 30.9783 13.5333C30.7738 13.5895 30.5616 13.6131 30.3497 13.6033C30.2325 13.6033 30.1163 13.5967 30 13.5853C29.8838 13.574 29.7836 13.5617 29.7023 13.5504C28.7117 13.3758 27.8812 12.9738 27.2108 12.3443C26.5313 11.7017 26.0078 10.9122 25.6805 10.0361C25.482 9.66308 25.2983 9.27839 25.1294 8.88204C24.9714 8.50619 24.7784 8.14606 24.5529 7.8064C24.3486 7.49945 24.0928 7.23019 23.7967 7.01055C23.4877 6.79347 23.1164 6.68298 22.739 6.6958C22.5056 6.6958 22.361 6.74306 22.3109 6.83569C22.2608 6.92832 22.2315 7.11925 22.2315 7.39524V10.9983C22.2184 11.2315 22.2574 11.4646 22.3458 11.6808C22.4123 11.8224 22.5227 11.9387 22.6606 12.0125C22.8112 12.0879 22.9742 12.1353 23.1417 12.1524C23.3307 12.1764 23.5406 12.2113 23.7712 12.2573C23.8161 12.2728 23.8637 12.2789 23.9111 12.2753C23.9996 12.2745 24.0877 12.2863 24.1729 12.3103C24.211 12.3196 24.2445 12.3425 24.2671 12.3747C24.2897 12.4068 24.2999 12.446 24.2958 12.4851C24.2958 12.6486 24.2372 12.7469 24.1209 12.7819C23.9492 12.8231 23.7728 12.8409 23.5963 12.8348C23.1767 12.8348 22.757 12.8144 22.3373 12.7734C21.9167 12.7328 21.5037 12.712 21.0953 12.712C20.7343 12.712 20.3751 12.7299 20.0197 12.7649C19.6643 12.7999 19.3061 12.8169 18.945 12.8169C18.8437 12.8259 18.7417 12.811 18.6473 12.7734C18.601 12.7441 18.5773 12.6486 18.5773 12.4851C18.5774 12.4454 18.5915 12.4069 18.617 12.3765C18.6426 12.3461 18.6781 12.3257 18.7172 12.3188C18.8347 12.2844 18.9544 12.2582 19.0755 12.2403C19.221 12.2167 19.376 12.1902 19.5395 12.1609C19.7021 12.1322 19.8587 12.0763 20.0027 11.9955C20.1658 11.9095 20.3 11.7775 20.3885 11.6158C20.4771 11.4541 20.5161 11.2699 20.5008 11.0862V7.48315C20.5008 6.49258 20.5096 5.50737 20.5273 4.52752C20.5449 3.54767 20.5537 2.56277 20.5537 1.57284C20.565 1.38181 20.5161 1.19207 20.4138 1.0303C20.3244 0.905509 20.1992 0.810893 20.0547 0.759025C19.9054 0.706403 19.7495 0.674598 19.5915 0.664505C19.428 0.653163 19.2739 0.640875 19.1284 0.629533C19.0063 0.622877 18.8858 0.599339 18.7702 0.559589C18.7266 0.545477 18.6891 0.517079 18.6637 0.478996C18.6383 0.440913 18.6265 0.395374 18.6303 0.349755C18.6303 0.186236 18.6908 0.0898261 18.8136 0.0605251C18.9376 0.0315673 19.0644 0.0169783 19.1917 0.0170461C19.3193 0.0170461 19.4507 0.0236624 19.5849 0.0350047C19.7191 0.0463471 19.8496 0.0520183 19.9781 0.0520183H21.4999C21.941 0.0520183 22.3868 0.0431966 22.8373 0.0255529C23.2879 0.00790927 23.7337 -0.000597538 24.1748 3.25928e-05C24.5927 0.00374468 25.0089 0.0535105 25.4158 0.148428C25.8607 0.248199 26.2823 0.432374 26.6578 0.690971C27.0545 0.96608 27.3836 1.32774 27.62 1.74864C27.8759 2.18974 28.0041 2.75496 28.0047 3.44433C28.0072 3.80449 27.9263 4.16034 27.7684 4.48404C27.6116 4.80336 27.4048 5.09563 27.1559 5.34984C26.903 5.60826 26.6214 5.83691 26.3166 6.03133C26.0234 6.22148 25.7174 6.39107 25.4007 6.5389V6.5389ZM26.223 3.39139C26.2323 2.97051 26.1548 2.55223 25.9952 2.16264C25.8542 1.82709 25.6424 1.52595 25.3742 1.27983C25.1038 1.03591 24.7854 0.851122 24.4394 0.737285C24.0558 0.611308 23.6541 0.549356 23.2504 0.553917C22.8421 0.553917 22.5739 0.626698 22.446 0.772258C22.3181 0.917818 22.2551 1.13049 22.257 1.41026V2.00952C22.257 2.47645 22.251 3.00103 22.239 3.58327C22.227 4.16551 22.2214 4.69009 22.222 5.15702C22.222 5.33188 22.222 5.48122 22.2135 5.60315C22.2049 5.70654 22.2168 5.81062 22.2485 5.9094C22.2643 5.9512 22.2896 5.98876 22.3224 6.01911C22.3552 6.04945 22.3946 6.07176 22.4375 6.08426C22.5886 6.12551 22.7451 6.14305 22.9016 6.13624C23.3411 6.13855 23.78 6.10058 24.2126 6.02282C24.5915 5.95951 24.9527 5.81646 25.2722 5.60315C25.5763 5.39106 25.8178 5.10119 25.9716 4.76382C26.1392 4.40843 26.223 3.95095 26.223 3.39139Z" fill="white"/>
<path d="M41.313 7.41315C41.3195 7.53375 41.2955 7.65404 41.2431 7.76287C41.1814 7.77331 41.1193 7.78056 41.0569 7.78461C40.9957 7.79092 40.9341 7.79407 40.8726 7.79406H36.52C36.4602 7.79643 36.4012 7.80823 36.3451 7.82904C36.3101 7.82904 36.2865 7.87535 36.2751 7.96892C36.2629 8.06294 36.2569 8.15767 36.2572 8.25248V8.39237C36.267 8.85153 36.3233 9.30852 36.4254 9.75629C36.5136 10.1611 36.6768 10.5458 36.9065 10.8905C37.1287 11.2185 37.4293 11.4859 37.7808 11.6684C38.1419 11.8612 38.5906 11.9577 39.1268 11.9577C39.3234 11.9598 39.5198 11.9421 39.7128 11.9047C39.8761 11.8718 40.0348 11.8191 40.1854 11.7478C40.3384 11.6732 40.4846 11.5853 40.6221 11.4851C40.7677 11.3805 40.928 11.2639 41.1032 11.1353C41.1478 11.1184 41.1958 11.1126 41.2431 11.1183C41.3244 11.1183 41.365 11.1533 41.365 11.2232C41.3555 11.3062 41.3228 11.3849 41.2705 11.4501C41.2031 11.5489 41.1299 11.6436 41.0512 11.7336C40.9714 11.8255 40.8868 11.9133 40.7979 11.9964C40.711 12.0777 40.6429 12.1363 40.5966 12.1713C40.2843 12.4446 39.9301 12.6657 39.5474 12.8263C39.1617 12.9688 38.7525 13.0371 38.3413 13.0276C37.8426 13.0394 37.3472 12.9426 36.8895 12.7441C36.4789 12.5583 36.1147 12.2836 35.8233 11.9397C35.5276 11.5869 35.303 11.1802 35.1617 10.7421C35.0044 10.2658 34.9206 9.76826 34.9131 9.26668C34.9021 8.70863 34.9547 8.15114 35.07 7.60502C35.1763 7.07208 35.3715 6.56083 35.6475 6.09271C35.9116 5.64835 36.2749 5.27114 36.709 4.99061C37.1457 4.70516 37.6731 4.56244 38.2913 4.56244C38.9907 4.56244 39.5893 4.71115 40.0871 5.00857C40.5849 5.30599 40.9375 5.80443 41.1448 6.50387C41.1906 6.65331 41.2284 6.80507 41.2582 6.95851C41.2848 7.10894 41.3031 7.26071 41.313 7.41315V7.41315ZM39.8612 6.55586C39.861 6.35627 39.8161 6.15927 39.7298 5.97929C39.646 5.7974 39.5308 5.63167 39.3896 5.48968C39.2506 5.35068 39.0876 5.23796 38.9085 5.15697C38.7356 5.07742 38.5477 5.03585 38.3574 5.03504C38.1072 5.03651 37.8611 5.09948 37.641 5.2184C37.4073 5.34109 37.1971 5.50395 37.02 5.69951C36.8396 5.89756 36.6948 6.12522 36.5918 6.37249C36.4901 6.60709 36.4364 6.85971 36.4339 7.11541C36.4339 7.16267 36.4717 7.19386 36.5474 7.20993C36.6338 7.22911 36.7217 7.24081 36.8101 7.2449C36.9061 7.25058 37.0024 7.25058 37.0984 7.2449C37.1929 7.23923 37.2496 7.2364 37.2733 7.2364C37.5991 7.2364 37.8703 7.23923 38.0871 7.2449C38.3039 7.25058 38.5691 7.24144 38.8829 7.21749C39.0228 7.20615 39.1514 7.19481 39.2676 7.18252C39.3725 7.17367 39.4756 7.15013 39.5739 7.11258C39.6622 7.07631 39.7359 7.01183 39.7837 6.92921C39.8421 6.8138 39.8688 6.68497 39.8612 6.55586V6.55586Z" fill="white"/>
<path d="M48.6394 4.44049C48.6667 4.44324 48.6929 4.45259 48.7158 4.46774C48.7387 4.48289 48.7575 4.50338 48.7708 4.52745C48.8039 4.56739 48.8252 4.61587 48.8322 4.66734C48.8319 4.71452 48.8258 4.76149 48.8142 4.80723C48.803 4.85302 48.7973 4.89998 48.7972 4.94712V5.89231L48.8322 5.91027C48.8857 5.88553 48.9334 5.84978 48.9721 5.80535C49.3477 5.48164 49.7513 5.19191 50.1782 4.93955C50.6097 4.69435 51.0997 4.57057 51.5959 4.58132C51.9957 4.56783 52.3932 4.64541 52.7585 4.80817C53.0547 4.94903 53.3103 5.16269 53.5015 5.42917C53.6968 5.71258 53.828 6.03511 53.8862 6.37436C53.9581 6.76371 53.9932 7.15897 53.9911 7.55491C53.9911 7.78806 53.9854 8.01522 53.9741 8.2364C53.9618 8.45852 53.9561 8.68537 53.9561 8.91883V11.4709C53.9561 11.8666 54.0727 12.1114 54.3058 12.2053C54.5802 12.3057 54.8711 12.3532 55.1631 12.3452C55.1882 12.3431 55.2132 12.3498 55.2339 12.3641C55.2545 12.3784 55.2696 12.3994 55.2765 12.4236C55.2945 12.4772 55.3034 12.5334 55.303 12.59C55.3028 12.6378 55.2939 12.6853 55.2765 12.7299C55.2595 12.7762 55.2094 12.7998 55.1281 12.7998C54.9674 12.8001 54.8068 12.7913 54.647 12.7733C54.4873 12.7559 54.3267 12.747 54.1659 12.7469H52.854C52.7595 12.7469 52.665 12.7469 52.5704 12.7563C52.4759 12.7658 52.3814 12.7705 52.2869 12.7818C52.1924 12.7932 52.0978 12.8026 52.0033 12.8083C51.9088 12.814 51.8143 12.8168 51.7198 12.8168C51.6173 12.8142 51.515 12.8057 51.4135 12.7913C51.2793 12.7737 51.2122 12.7106 51.2122 12.6023C51.2075 12.5533 51.2185 12.504 51.2436 12.4617C51.2688 12.4194 51.3068 12.3862 51.3521 12.3669C51.461 12.3212 51.5759 12.2916 51.6933 12.279C51.8275 12.261 51.9617 12.2384 52.096 12.2091C52.2243 12.1828 52.339 12.1114 52.4192 12.0077C52.5196 11.8705 52.5745 11.7052 52.5761 11.5351C52.5875 11.3366 52.5941 11.1674 52.5941 11.0276C52.6054 10.7717 52.6111 10.5197 52.6111 10.2714V8.02467C52.6115 7.72703 52.597 7.42955 52.5676 7.13335C52.5442 6.86368 52.4732 6.6003 52.3578 6.35546C52.2474 6.12822 52.0746 5.93709 51.8597 5.80441C51.6375 5.66452 51.3407 5.59457 50.9674 5.59457C50.7208 5.59118 50.4753 5.62953 50.2415 5.708C50.0091 5.79133 49.784 5.89377 49.5685 6.01424C49.4639 6.07284 49.3328 6.14846 49.1753 6.24109C49.0395 6.31267 48.9272 6.42197 48.852 6.55584C48.8217 6.66147 48.8011 6.76968 48.7906 6.8791C48.7726 7.0256 48.7585 7.19196 48.7471 7.37816C48.7358 7.56436 48.7292 7.75624 48.7292 7.95473V11.365C48.7251 11.5711 48.7856 11.7734 48.9021 11.9435C48.9518 12.0211 49.017 12.0876 49.0936 12.1388C49.1703 12.19 49.2566 12.2249 49.3473 12.2412C49.5127 12.2644 49.6794 12.2761 49.8464 12.2762C49.9433 12.2761 50.0394 12.2937 50.1299 12.3282C50.1999 12.3521 50.2349 12.4151 50.2349 12.5172C50.2379 12.5551 50.2332 12.5932 50.2212 12.6292C50.2092 12.6653 50.19 12.6985 50.1649 12.727C50.1031 12.751 50.04 12.7715 49.9759 12.7885C49.9094 12.7961 49.8424 12.799 49.7755 12.797C49.5228 12.7971 49.2703 12.7826 49.0193 12.7535C48.7756 12.7241 48.5304 12.7093 48.2849 12.7091C47.9901 12.7088 47.6954 12.7236 47.4021 12.7535C47.1186 12.7818 46.8218 12.797 46.5193 12.797C46.4384 12.799 46.3579 12.7842 46.283 12.7535C46.22 12.7239 46.1885 12.6568 46.1885 12.5522C46.1906 12.5155 46.2033 12.4802 46.2252 12.4507C46.247 12.4211 46.2769 12.3986 46.3114 12.3858C46.4063 12.3404 46.5058 12.3052 46.6081 12.2809C46.7236 12.2519 46.8375 12.2169 46.9494 12.176C47.0469 12.1437 47.1343 12.0864 47.2027 12.0096C47.3093 11.8505 47.3742 11.6672 47.3917 11.4765C47.418 11.2822 47.4325 11.0865 47.4352 10.8905V7.29026C47.439 7.04956 47.4155 6.80921 47.3652 6.5738C47.3561 6.51444 47.3352 6.45752 47.3037 6.40639C47.2722 6.35525 47.2308 6.31094 47.1819 6.27606C47.0847 6.20735 46.9788 6.15174 46.8671 6.11065C46.7556 6.06906 46.6564 6.03409 46.5694 6.00479C46.4824 5.97549 46.438 5.92634 46.438 5.85639V5.82142C46.485 5.73856 46.5495 5.66695 46.627 5.61159C46.6734 5.57662 46.7991 5.49533 47.0051 5.36678C47.2112 5.23824 47.4314 5.1078 47.6668 4.97358C47.9021 4.83936 48.1205 4.71743 48.3133 4.60684C48.4155 4.53948 48.5248 4.48368 48.6394 4.44049V4.44049Z" fill="white"/>
<path d="M66.3183 7.41316C66.3248 7.53376 66.3007 7.65405 66.2483 7.76288C66.1877 7.77449 66.1265 7.78301 66.065 7.7884C66.0022 7.79487 65.9391 7.79803 65.8759 7.79785H61.5271C61.4673 7.80022 61.4083 7.81202 61.3522 7.83283C61.3173 7.83283 61.2936 7.87914 61.2823 7.97272C61.27 8.06673 61.264 8.16146 61.2643 8.25627V8.39616C61.2739 8.85523 61.3297 9.31216 61.4307 9.76008C61.5189 10.1649 61.6821 10.5496 61.9118 10.8943C62.134 11.2223 62.4345 11.4897 62.7861 11.6722C63.1472 11.865 63.5958 11.9614 64.1321 11.9614C64.3287 11.9636 64.525 11.9459 64.7181 11.9085C64.8814 11.8756 65.0401 11.8229 65.1907 11.7516C65.3437 11.677 65.4898 11.5891 65.6274 11.4888C65.7729 11.3842 65.9333 11.2677 66.1085 11.1391C66.153 11.1222 66.201 11.1164 66.2483 11.1221C66.3296 11.1221 66.3703 11.1571 66.3703 11.227C66.3608 11.31 66.328 11.3887 66.2758 11.4539C66.2084 11.5527 66.1351 11.6473 66.0565 11.7374C65.9769 11.8296 65.8923 11.9173 65.8032 12.0002C65.7391 12.0619 65.6719 12.1203 65.6018 12.1751C65.2896 12.4483 64.9353 12.6695 64.5527 12.8301C64.1669 12.9726 63.7577 13.0409 63.3466 13.0314C62.8478 13.0432 62.3525 12.9464 61.8948 12.7478C61.4841 12.5621 61.1199 12.2874 60.8286 11.9435C60.5329 11.5907 60.3082 11.184 60.167 10.7459C60.0116 10.2715 59.9291 9.77625 59.9222 9.27708C59.9111 8.71904 59.9637 8.16155 60.0791 7.61543C60.1853 7.08249 60.3805 6.57124 60.6566 6.10312C60.9198 5.65938 61.2817 5.28226 61.7142 5.00102C62.1516 4.71557 62.679 4.57285 63.2965 4.57285C63.9959 4.57285 64.5946 4.72156 65.0924 5.01898C65.5902 5.3164 65.9427 5.81483 66.15 6.51428C66.1958 6.66372 66.2337 6.81548 66.2635 6.96892C66.2897 7.11591 66.308 7.2642 66.3183 7.41316ZM64.8665 6.55587C64.8661 6.3564 64.8216 6.1595 64.736 5.9793C64.6515 5.79756 64.5361 5.63189 64.3948 5.48969C64.2558 5.35069 64.0928 5.23797 63.9137 5.15698C63.7409 5.07743 63.5529 5.03586 63.3627 5.03505C63.1124 5.03652 62.8664 5.09949 62.6462 5.21841C62.4126 5.3411 62.2024 5.50396 62.0252 5.69952C61.8449 5.89757 61.7 6.12523 61.597 6.3725C61.4953 6.6071 61.4416 6.85972 61.4392 7.11542C61.4392 7.16268 61.477 7.19387 61.5536 7.20994C61.6396 7.22921 61.7273 7.24092 61.8154 7.24491C61.9098 7.2504 62.0045 7.2504 62.0989 7.24491C62.1935 7.23924 62.2502 7.23641 62.2738 7.23641C62.6002 7.23641 62.8715 7.23924 63.0876 7.24491C63.3037 7.25059 63.5687 7.24176 63.8825 7.21845C64.0224 7.20711 64.151 7.19576 64.2672 7.18348C64.3721 7.17474 64.4752 7.15119 64.5735 7.11353C64.662 7.07777 64.736 7.01316 64.7833 6.93016C64.8438 6.81501 64.8725 6.68581 64.8665 6.55587Z" fill="white"/>
<path d="M77.8413 7.41316C77.8478 7.53376 77.8237 7.65405 77.7713 7.76288C77.6503 7.78514 77.5276 7.79684 77.4046 7.79785H73.0501C72.9903 7.80022 72.9313 7.81202 72.8752 7.83283C72.8403 7.83283 72.8166 7.87914 72.8053 7.97272C72.7938 8.0668 72.7881 8.1615 72.7883 8.25627V8.39616C72.7974 8.85526 72.8531 9.31224 72.9546 9.76008C73.0425 10.1648 73.2054 10.5495 73.4348 10.8943C73.6572 11.2221 73.9577 11.4894 74.3091 11.6722C74.6701 11.865 75.1191 11.9614 75.656 11.9614C75.8526 11.9636 76.049 11.9459 76.242 11.9085C76.4053 11.8756 76.564 11.8229 76.7146 11.7516C76.8678 11.6768 77.0142 11.5889 77.1522 11.4888C77.2978 11.3842 77.4579 11.2677 77.6324 11.1391C77.677 11.1224 77.725 11.1166 77.7723 11.1221C77.8536 11.1221 77.8952 11.1571 77.8952 11.227C77.886 11.3101 77.8532 11.3888 77.8006 11.4539C77.7336 11.5527 77.6607 11.6473 77.5823 11.7374C77.5001 11.832 77.4159 11.9189 77.329 12.0002C77.242 12.0815 77.174 12.1401 77.1277 12.1751C76.8151 12.4479 76.4609 12.6691 76.0785 12.8301C75.6924 12.9725 75.2829 13.0408 74.8715 13.0314C74.373 13.0432 73.878 12.9464 73.4206 12.7478C73.0098 12.5619 72.6454 12.2872 72.3535 11.9435C72.0581 11.5905 71.8335 11.1839 71.6918 10.7459C71.5369 10.2714 71.4544 9.77621 71.447 9.27709C71.4363 8.719 71.4893 8.16151 71.6049 7.61543C71.7108 7.08254 71.9057 6.57129 72.1814 6.10312C72.445 5.65934 72.8073 5.28223 73.2401 5.00102C73.6767 4.71557 74.2042 4.57285 74.8223 4.57285C75.5218 4.57285 76.1204 4.72156 76.6182 5.01898C77.116 5.3164 77.4686 5.81483 77.6759 6.51428C77.722 6.66371 77.7601 6.81546 77.7902 6.96892C77.8152 7.11598 77.8322 7.26427 77.8413 7.41316V7.41316ZM76.3904 6.55587C76.3902 6.35628 76.3453 6.15928 76.259 5.9793C76.1748 5.79736 76.0594 5.63164 75.9178 5.48969C75.7792 5.3507 75.6165 5.23798 75.4376 5.15698C75.2647 5.07754 75.0769 5.03597 74.8866 5.03505C74.6361 5.03663 74.3898 5.09959 74.1692 5.21841C73.9359 5.34111 73.726 5.50397 73.5491 5.69952C73.3682 5.89728 73.223 6.125 73.12 6.3725C73.0186 6.60715 72.9652 6.85978 72.9631 7.11542C72.9631 7.16268 73.0009 7.19387 73.0766 7.20994C73.163 7.22919 73.2509 7.24089 73.3393 7.24491C73.4353 7.25059 73.5316 7.25059 73.6276 7.24491C73.7221 7.23924 73.7788 7.23641 73.8025 7.23641C74.1282 7.23641 74.3992 7.23924 74.6153 7.24491C74.8315 7.25059 75.0968 7.24176 75.4112 7.21845C75.5511 7.20711 75.6787 7.19576 75.7959 7.18348C75.9007 7.17463 76.0038 7.15108 76.1021 7.11353C76.1902 7.07842 76.2643 7.01532 76.3129 6.93395C76.3717 6.81698 76.3984 6.68653 76.3904 6.55587V6.55587Z" fill="white"/>
<path d="M30.0521 17.5201C29.958 17.8058 29.9021 18.1026 29.8857 18.4029C29.8567 18.7703 29.8218 19.1288 29.7808 19.4785C29.7483 19.786 29.6898 20.0902 29.6059 20.3878C29.5303 20.6439 29.4056 20.7725 29.2279 20.7725C29.0889 20.7725 29.0067 20.7167 28.984 20.6061C28.9597 20.4675 28.9565 20.326 28.9745 20.1865C28.9925 20.0173 29.0067 19.8339 29.019 19.6354C29.0314 19.4447 29.0014 19.2536 28.9311 19.0759C28.862 18.9251 28.7408 18.8043 28.5899 18.7356C28.3996 18.6422 28.1963 18.5785 27.9868 18.5466C27.7409 18.5043 27.4929 18.4753 27.2439 18.4596C26.9811 18.442 26.7335 18.4331 26.501 18.4331C26.3261 18.4331 26.1683 18.4331 26.0284 18.4416C25.8885 18.4501 25.7722 18.4501 25.6786 18.4501C25.5851 18.4501 25.5217 18.4501 25.4518 18.4416C25.4178 18.4387 25.3836 18.4434 25.3517 18.4555C25.3197 18.4677 25.291 18.4868 25.2675 18.5116C25.2014 18.593 25.1592 18.6912 25.1456 18.7951C25.1112 18.9942 25.0967 19.1962 25.1021 19.3982L25.0671 21.5315C25.0438 22.558 25.0466 23.5838 25.0756 24.609C25.1046 25.6343 25.1074 26.6601 25.0841 27.6866C25.0841 27.8756 25.087 28.0622 25.0926 28.2462C25.0985 28.434 25.1191 28.6211 25.1541 28.8057C25.2127 29.1327 25.3585 29.3514 25.5917 29.4617C25.8231 29.572 26.0713 29.6429 26.3261 29.6715L27.0161 29.75C27.2203 29.7736 27.3223 29.8549 27.3223 29.9948C27.3223 30.1838 27.2817 30.2831 27.2004 30.2925C27.0843 30.3057 26.9675 30.3113 26.8507 30.3095C26.3838 30.3095 25.9203 30.295 25.4603 30.266C25.0003 30.2371 24.5369 30.2226 24.0699 30.2226C23.6503 30.2226 23.2334 30.2371 22.8194 30.266C22.4054 30.295 21.9889 30.3095 21.5699 30.3095C21.4732 30.3093 21.3767 30.3036 21.2807 30.2925C21.1814 30.2802 21.1323 30.2103 21.1323 30.0827C21.1252 30.0264 21.1369 29.9694 21.1654 29.9204C21.1939 29.8714 21.2377 29.8331 21.2901 29.8114C21.3959 29.7704 21.5084 29.7496 21.6219 29.75C21.6982 29.7524 21.7745 29.7467 21.8497 29.7329C22.1272 29.7112 22.4006 29.6524 22.6625 29.5581C22.8465 29.4911 23.0072 29.3727 23.1257 29.2169C23.2381 29.0523 23.31 28.8635 23.3355 28.6658C23.3737 28.3938 23.3911 28.1192 23.3875 27.8444V19.3736C23.3875 19.315 23.3847 19.2072 23.379 19.0503C23.3776 18.9418 23.369 18.8335 23.3535 18.7261C23.3302 18.6215 23.1959 18.5488 22.9508 18.5078C22.6908 18.4658 22.4278 18.4452 22.1644 18.4464H21.0822C20.8184 18.4457 20.5559 18.4839 20.3033 18.5598C20.03 18.6501 19.7814 18.8028 19.5774 19.0059C19.4858 19.1179 19.4095 19.2415 19.3506 19.3736C19.256 19.5626 19.1615 19.7517 19.0538 19.9596C18.946 20.1676 18.8458 20.3472 18.7475 20.5097C18.6492 20.6723 18.5755 20.7545 18.5292 20.7545C18.4362 20.7617 18.3435 20.737 18.2664 20.6846C18.2333 20.6502 18.2083 20.6089 18.1932 20.5636C18.1782 20.5182 18.1735 20.4701 18.1795 20.4228C18.1913 20.1525 18.2383 19.885 18.3194 19.6269C18.4336 19.1648 18.5095 18.6941 18.5462 18.2195C18.5575 18.091 18.5698 17.9539 18.5812 17.8084C18.5903 17.6745 18.6167 17.5423 18.6596 17.4152C18.6982 17.3064 18.7631 17.209 18.8487 17.1316C18.946 17.0495 19.0714 17.0085 19.1984 17.0172C19.2285 17.0183 19.2579 17.0268 19.2838 17.0422C19.3098 17.0576 19.3314 17.0792 19.3468 17.1051C19.3874 17.1637 19.4413 17.2299 19.4952 17.3065C19.5627 17.3905 19.6423 17.4641 19.7315 17.5248C19.8548 17.6024 19.997 17.6446 20.1426 17.6467C20.8421 17.682 21.5589 17.7085 22.293 17.7261C23.0271 17.7438 23.7441 17.7523 24.4442 17.7516C25.0038 17.7516 25.5429 17.746 26.0615 17.7346C26.5801 17.7233 27.1191 17.7173 27.6787 17.7167C27.8532 17.7167 28.0309 17.7138 28.2118 17.7082C28.3904 17.7028 28.5687 17.6883 28.7458 17.6647C28.875 17.6462 28.9962 17.5915 29.0955 17.5068C29.1852 17.4255 29.266 17.3349 29.3366 17.2365C29.4065 17.142 29.4642 17.0588 29.5105 16.9832C29.5244 16.952 29.5463 16.9249 29.5741 16.9048C29.6018 16.8848 29.6343 16.8723 29.6683 16.8688C29.8668 16.8688 29.9916 16.9454 30.0464 17.0966C30.0982 17.2327 30.1002 17.3827 30.0521 17.5201V17.5201Z" fill="white"/>
<path d="M38.4983 23.5354C38.4985 23.6646 38.4748 23.7928 38.4284 23.9134C38.3862 24.0298 38.3098 24.1307 38.2091 24.2027C38.0973 24.2758 37.9641 24.309 37.831 24.2972C37.639 24.2749 37.4572 24.1989 37.3064 24.0779C37.2589 24.0492 37.2177 24.0113 37.1852 23.9663C37.1527 23.9213 37.1297 23.8702 37.1174 23.8161C37.0881 23.6998 37.056 23.5826 37.0229 23.4664C36.9913 23.3581 36.9441 23.2549 36.883 23.1601C36.8461 23.1132 36.7978 23.0764 36.7427 23.0534C36.6876 23.0305 36.6276 23.0219 36.5682 23.0287C36.3288 23.0275 36.0914 23.0721 35.8688 23.1601C35.6563 23.2428 35.4562 23.3545 35.2743 23.4919C35.1063 23.6186 34.9639 23.7761 34.8546 23.956C34.7544 24.1128 34.6997 24.2944 34.6968 24.4806V28.7292C34.6988 28.8058 34.708 28.8821 34.7242 28.957C34.7384 29.1299 34.8043 29.2946 34.9132 29.4296C35.0096 29.5449 35.1325 29.635 35.2714 29.6924C35.4189 29.7527 35.5754 29.7882 35.7346 29.7973C35.9038 29.8086 36.0701 29.8143 36.2327 29.8143C36.3386 29.8143 36.3905 29.9192 36.3905 30.129C36.3953 30.1611 36.3884 30.1939 36.3711 30.2213C36.3537 30.2487 36.3271 30.269 36.296 30.2784C36.2363 30.2948 36.1746 30.3034 36.1127 30.3039C35.823 30.3042 35.5337 30.284 35.2469 30.2434C34.9604 30.2021 34.6714 30.1815 34.382 30.182C34.0546 30.1817 33.7276 30.2022 33.4028 30.2434C33.0776 30.2838 32.7503 30.304 32.4226 30.3039C32.3359 30.3007 32.2503 30.2831 32.1693 30.2519C32.1243 30.2392 32.085 30.2115 32.0579 30.1733C32.0309 30.1351 32.0179 30.0888 32.0209 30.0421C32.0172 29.9904 32.0332 29.9392 32.0656 29.8987C32.098 29.8582 32.1445 29.8315 32.1958 29.8237C32.312 29.7944 32.4406 29.7651 32.5805 29.7358C32.7237 29.7055 32.862 29.6556 32.9916 29.5874C33.0627 29.5452 33.1227 29.4866 33.1667 29.4166C33.2108 29.3466 33.2376 29.2672 33.2449 29.1848C33.291 28.9541 33.3204 28.7203 33.3328 28.4853C33.3442 28.2528 33.3498 28.0197 33.3498 27.7859C33.3498 27.3316 33.347 26.9119 33.3413 26.5269C33.3347 26.1422 33.3328 25.7225 33.3328 25.2679C33.3328 25.1167 33.3328 24.9598 33.3234 24.7953C33.3194 24.6393 33.2874 24.4853 33.2289 24.3407C33.1925 24.2166 33.1189 24.1067 33.0181 24.0259C32.9299 23.9609 32.8366 23.9031 32.7393 23.8529C32.6513 23.8066 32.5701 23.7584 32.4944 23.713C32.4574 23.6911 32.4261 23.6606 32.4032 23.6241C32.3804 23.5876 32.3666 23.5461 32.3631 23.5032C32.3871 23.4441 32.4304 23.3948 32.4859 23.3633C32.5436 23.3284 32.5965 23.2991 32.6428 23.2754C32.7591 23.2178 32.8725 23.1592 32.9841 23.1006C33.0956 23.042 33.2081 22.9786 33.3253 22.9115C33.4227 22.8554 33.5159 22.7923 33.6041 22.7225L33.9198 22.4777C34.0206 22.3992 34.1257 22.3263 34.2346 22.2593C34.3203 22.2025 34.4168 22.1639 34.5181 22.1459C34.5322 22.1402 34.5475 22.138 34.5626 22.1395C34.5778 22.141 34.5923 22.1461 34.6051 22.1544C34.6271 22.1709 34.6505 22.1855 34.675 22.1979C34.7035 22.2646 34.7211 22.3354 34.727 22.4077C34.7398 22.5122 34.7458 22.6173 34.745 22.7225V23.265C34.7563 23.2187 34.8395 23.1365 34.9898 23.0202C35.1729 22.8835 35.3659 22.7606 35.5673 22.6525C35.8142 22.5184 36.0715 22.4043 36.3367 22.3113C36.606 22.2145 36.8898 22.1644 37.176 22.1629C37.3961 22.155 37.6149 22.2001 37.814 22.2943C37.973 22.3742 38.1129 22.4873 38.2242 22.6261C38.328 22.7576 38.4027 22.9097 38.4435 23.0722C38.4801 23.2239 38.4985 23.3793 38.4983 23.5354V23.5354Z" fill="white"/>
<path d="M49.5835 28.9381C49.5751 28.9913 49.5638 29.044 49.5495 29.096C49.4638 29.457 49.2532 29.776 48.955 29.9968C48.6582 30.2214 48.2951 30.3411 47.9228 30.337C47.5385 30.337 47.2354 30.2148 47.0136 29.9703C46.7863 29.7154 46.6242 29.4092 46.541 29.078C46.4007 29.2652 46.2392 29.4355 46.0598 29.5856C45.8612 29.7532 45.6477 29.9022 45.4218 30.0308C45.1927 30.1631 44.9491 30.2687 44.6959 30.3455C44.461 30.4194 44.2163 30.458 43.97 30.4599C43.3758 30.4599 42.959 30.2879 42.7195 29.9438C42.4801 29.5998 42.3607 29.1656 42.3613 28.6413C42.3596 28.391 42.4294 28.1454 42.5626 27.9334C42.6999 27.7128 42.8708 27.5151 43.0693 27.3474C43.2728 27.1725 43.4947 27.0201 43.7309 26.8927C43.9489 26.7741 44.1739 26.669 44.4048 26.578C44.8119 26.4267 45.1818 26.2957 45.5145 26.1848C45.8472 26.0739 46.2231 25.9658 46.6421 25.8606V24.5146C46.6421 24.025 46.552 23.6315 46.3718 23.3341C46.1915 23.0366 45.839 22.8879 45.3141 22.8879C45.0231 22.8744 44.7336 22.9377 44.4748 23.0713C44.1117 23.2744 43.8409 23.6095 43.7186 24.007C43.6723 24.1706 43.6373 24.2906 43.6137 24.3747C43.5493 24.5697 43.4198 24.7365 43.2469 24.8473C43.0672 24.9721 42.8532 25.0381 42.6345 25.0364C42.5825 25.0435 42.5297 25.0301 42.4874 24.9991C42.4451 24.968 42.4164 24.9218 42.4076 24.87C42.3853 24.7694 42.3735 24.6668 42.3726 24.5638C42.3726 24.284 42.4892 23.9957 42.7224 23.6989C42.9705 23.3859 43.2584 23.1067 43.5787 22.8681C43.9202 22.6137 44.2932 22.4046 44.6884 22.2461C45.03 22.0947 45.398 22.0116 45.7716 22.0013C45.8741 22.003 45.9764 22.0115 46.0778 22.0269C46.2007 22.0448 46.3254 22.0656 46.4559 22.0883C46.5799 22.1109 46.7027 22.1403 46.8236 22.1762C46.9208 22.2032 47.0157 22.2383 47.1071 22.2811C47.4915 22.4796 47.7303 22.7389 47.8236 23.059C47.9182 23.4079 47.9631 23.7685 47.9569 24.1299C47.9569 24.571 47.9512 25.0401 47.9398 25.5373C47.9285 26.0345 47.9225 26.5036 47.9219 26.9447C47.9219 27.0496 47.9219 27.2046 47.9134 27.4079C47.9049 27.6111 47.9068 27.8219 47.9134 28.0374C47.92 28.2529 47.9304 28.457 47.9483 28.6498C47.9497 28.7864 47.9821 28.9208 48.0429 29.0431C48.0881 29.1241 48.1635 29.1839 48.2527 29.2094C48.3444 29.2386 48.4401 29.2533 48.5363 29.2529C48.6445 29.2572 48.7523 29.2361 48.851 29.1914C48.927 29.1545 48.9976 29.1075 49.0608 29.0516C49.1185 28.9996 49.1714 28.9504 49.2178 28.9032C49.2603 28.8588 49.3154 28.8285 49.3756 28.8162C49.5145 28.7812 49.5835 28.8219 49.5835 28.9381ZM46.6336 26.6886C46.6296 26.6153 46.621 26.5424 46.6081 26.4702C46.5031 26.4939 46.3803 26.525 46.2404 26.5647C46.1005 26.6044 45.9568 26.6527 45.8122 26.7046C45.6676 26.7566 45.5286 26.8096 45.3925 26.8625C45.2564 26.9154 45.1392 26.957 45.0343 26.9939C44.7183 27.1108 44.4253 27.2823 44.1685 27.5005C44.0404 27.6065 43.9383 27.7404 43.87 27.8919C43.8017 28.0435 43.769 28.2086 43.7744 28.3748C43.7627 28.6603 43.8425 28.9422 44.0022 29.1792C44.1534 29.389 44.4158 29.4939 44.7895 29.4939C45.0479 29.4904 45.3021 29.4276 45.5324 29.3105C45.7649 29.2009 45.9753 29.0497 46.1534 28.8644C46.2692 28.7404 46.369 28.6022 46.4502 28.4533C46.5407 28.313 46.6003 28.1551 46.6251 27.9901C46.6235 27.9348 46.6263 27.8795 46.6336 27.8247C46.6381 27.8045 46.6409 27.7839 46.6421 27.7633V26.9939C46.6446 26.8804 46.6418 26.7787 46.6336 26.6886Z" fill="white"/>
<path d="M55.9665 22.6081C55.9665 23.6573 55.9636 24.692 55.958 25.7121C55.9523 26.7323 55.9491 27.767 55.9485 28.8162C55.9485 29.1892 55.94 29.5739 55.923 29.9703C55.906 30.3666 55.8745 30.7513 55.8285 31.1243C55.7497 31.8236 55.477 32.4869 55.0411 33.0393C54.6077 33.5823 54.1003 34.0618 53.5335 34.4637C53.4467 34.5299 53.3565 34.5914 53.2632 34.648C53.1729 34.7122 53.0673 34.7514 52.957 34.7614H52.922C52.8984 34.7142 52.8785 34.6669 52.8606 34.6301C52.8421 34.5875 52.8154 34.549 52.7821 34.5166C52.8052 34.4692 52.8344 34.425 52.8691 34.3853C52.904 34.3446 52.939 34.3002 52.974 34.2539C53.1725 34.0201 53.3678 33.7958 53.56 33.5809C53.7602 33.3541 53.9334 33.1048 54.0761 32.838C54.2349 32.5342 54.3525 32.2106 54.4258 31.8758C54.4963 31.5446 54.543 31.2088 54.5657 30.871C54.5884 30.527 54.5978 30.1829 54.5922 29.8389C54.5865 29.4948 54.5827 29.1545 54.5827 28.8162C54.5827 28.186 54.5859 27.5537 54.5922 26.9192C54.5985 26.2846 54.6013 25.652 54.6007 25.0212C54.6007 24.8936 54.6007 24.7273 54.5922 24.5231C54.596 24.3636 54.5637 24.2052 54.4976 24.0599C54.4381 23.9309 54.3364 23.8259 54.2094 23.7622C54.0941 23.7071 53.9738 23.6631 53.8502 23.6308C53.7339 23.6025 53.6318 23.5732 53.5449 23.5439C53.505 23.5336 53.4699 23.5096 53.4459 23.476C53.4219 23.4425 53.4104 23.4016 53.4135 23.3605C53.4148 23.3248 53.4232 23.2897 53.4381 23.2573C53.4531 23.2249 53.4742 23.1957 53.5005 23.1715C53.5704 23.1251 53.7197 23.0439 53.9466 22.9267C54.1734 22.8095 54.4192 22.6885 54.6725 22.5599C54.9258 22.4314 55.1649 22.3179 55.3804 22.2187C55.5092 22.1487 55.6478 22.0986 55.7916 22.0703C55.8214 22.0687 55.8512 22.0743 55.8785 22.0864C55.9057 22.0986 55.9297 22.117 55.9485 22.1403C55.9485 22.2215 55.9485 22.3 55.958 22.3766C55.9674 22.4531 55.9665 22.5297 55.9665 22.6081ZM56.1234 17.9767C56.126 18.1025 56.1034 18.2277 56.057 18.3447C56.0106 18.4617 55.9412 18.5683 55.853 18.6581C55.7668 18.7499 55.6623 18.8226 55.5462 18.8715C55.4301 18.9203 55.305 18.9442 55.1791 18.9417C54.9359 18.9341 54.7046 18.8341 54.5325 18.662C54.3604 18.4899 54.2604 18.2587 54.2528 18.0154C54.2468 17.7623 54.3409 17.5171 54.5146 17.333C54.5985 17.2414 54.7008 17.1688 54.8149 17.1199C54.929 17.071 55.0522 17.047 55.1763 17.0494C55.3005 17.0462 55.424 17.0677 55.5398 17.1128C55.6555 17.158 55.761 17.2257 55.8502 17.3122C55.9394 17.3975 56.0098 17.5005 56.0569 17.6146C56.1039 17.7287 56.1266 17.8514 56.1234 17.9748V17.9767Z" fill="white"/>
<path d="M68.2939 28.9381C68.2855 28.9914 68.2738 29.0441 68.259 29.096C68.1736 29.4571 67.9629 29.7762 67.6644 29.9968C67.368 30.2214 67.0052 30.3411 66.6332 30.337C66.2482 30.337 65.9451 30.2148 65.724 29.9703C65.4968 29.7153 65.3347 29.4092 65.2514 29.078C65.1113 29.2654 64.9499 29.4357 64.7703 29.5856C64.572 29.7536 64.3584 29.9026 64.1323 30.0308C63.9034 30.1631 63.6602 30.2687 63.4073 30.3455C63.1723 30.4194 62.9277 30.4579 62.6814 30.4599C62.0872 30.4599 61.6703 30.2879 61.4309 29.9438C61.1914 29.5998 61.072 29.1656 61.0727 28.6413C61.0712 28.3912 61.1407 28.1457 61.273 27.9334C61.4109 27.713 61.5822 27.5153 61.7806 27.3474C61.9842 27.1725 62.206 27.0201 62.4422 26.8927C62.6599 26.7741 62.8847 26.669 63.1152 26.578C63.5235 26.4267 63.8937 26.2957 64.2258 26.1848C64.5579 26.0739 64.9338 25.9658 65.3534 25.8606V24.5146C65.3534 24.025 65.263 23.6315 65.0822 23.3341C64.9013 23.0366 64.5491 22.8879 64.0254 22.8879C63.7344 22.8746 63.445 22.9378 63.1861 23.0713C62.9915 23.181 62.8218 23.33 62.688 23.5089C62.5754 23.6591 62.4897 23.8276 62.4347 24.007C62.3874 24.1706 62.3524 24.2906 62.3298 24.3747C62.265 24.5697 62.1352 24.7366 61.9621 24.8473C61.7827 24.9722 61.569 25.0382 61.3505 25.0364C61.2984 25.0435 61.2456 25.0302 61.2031 24.9991C61.1606 24.9681 61.1318 24.9218 61.1227 24.87C61.1004 24.7694 61.0887 24.6668 61.0878 24.5638C61.0878 24.284 61.2044 23.9957 61.4375 23.6989C61.6862 23.3861 61.9744 23.1069 62.2948 22.8681C62.6341 22.6141 63.0049 22.405 63.3978 22.2461C63.7398 22.0947 64.1081 22.0115 64.482 22.0013C64.5845 22.003 64.6868 22.0115 64.7882 22.0269C64.9111 22.0448 65.0359 22.0656 65.1663 22.0883C65.29 22.1109 65.4125 22.1403 65.533 22.1762C65.6303 22.2032 65.7252 22.2383 65.8166 22.2811C66.2016 22.4796 66.4407 22.7389 66.534 23.059C66.6297 23.4078 66.6762 23.7683 66.672 24.1299C66.672 24.571 66.666 25.0401 66.654 25.5373C66.6421 26.0345 66.6364 26.5036 66.637 26.9447C66.637 27.0496 66.637 27.2046 66.6285 27.4079C66.62 27.6111 66.6219 27.8219 66.6285 28.0374C66.6351 28.2529 66.6455 28.457 66.6635 28.6498C66.6654 28.7863 66.6977 28.9206 66.758 29.0431C66.8032 29.1241 66.8786 29.1839 66.9678 29.2094C67.0595 29.2385 67.1552 29.2532 67.2514 29.2529C67.3597 29.2574 67.4675 29.2363 67.5662 29.1914C67.6421 29.1545 67.7127 29.1075 67.776 29.0516C67.8346 28.9996 67.8866 28.9504 67.9338 28.9032C67.9761 28.8589 68.0308 28.8285 68.0907 28.8162C68.2262 28.7841 68.2939 28.8247 68.2939 28.9381ZM65.3487 26.6886C65.3444 26.6153 65.3356 26.5424 65.3223 26.4702C65.2173 26.4939 65.0954 26.525 64.9555 26.5647C64.8156 26.6044 64.672 26.6527 64.5264 26.7046C64.3808 26.7566 64.2428 26.8096 64.1077 26.8625C63.9725 26.9154 63.8534 26.957 63.7485 26.9939C63.4328 27.1108 63.1401 27.2823 62.8836 27.5005C62.7556 27.6065 62.6535 27.7404 62.5851 27.8919C62.5168 28.0435 62.4841 28.2086 62.4895 28.3748C62.4773 28.6604 62.5572 28.9424 62.7173 29.1792C62.8685 29.389 63.1307 29.4939 63.5037 29.4939C63.7621 29.4905 64.0163 29.4277 64.2466 29.3105C64.4792 29.2011 64.6897 29.0499 64.8676 28.8644C64.984 28.7407 65.0841 28.6025 65.1654 28.4533C65.2554 28.3128 65.315 28.155 65.3402 27.9901C65.3386 27.9348 65.3415 27.8795 65.3487 27.8247C65.3532 27.8045 65.356 27.7839 65.3572 27.7633V26.9939C65.3566 26.8804 65.3538 26.7787 65.3487 26.6886Z" fill="white"/>
<path d="M78.5756 23.5354C78.5758 23.6646 78.5521 23.7928 78.5057 23.9134C78.4639 24.0298 78.3878 24.1306 78.2874 24.2027C78.1754 24.2756 78.0423 24.3088 77.9093 24.2972C77.7173 24.2746 77.5356 24.1986 77.3847 24.0779C77.3381 24.0489 77.2978 24.0107 77.2663 23.9657C77.2347 23.9207 77.2127 23.8698 77.2013 23.8161C77.172 23.6998 77.1399 23.5826 77.1068 23.4664C77.0756 23.3579 77.0284 23.2547 76.9669 23.1601C76.93 23.1132 76.8817 23.0765 76.8266 23.0535C76.7715 23.0305 76.7115 23.022 76.6522 23.0287C76.4128 23.0275 76.1754 23.0721 75.9527 23.1601C75.7403 23.243 75.5403 23.3547 75.3582 23.4919C75.1902 23.6186 75.0478 23.7761 74.9385 23.956C74.839 24.1131 74.7847 24.2946 74.7816 24.4806V28.7292C74.7809 28.8056 74.7872 28.8818 74.8005 28.957C74.8131 29.1293 74.877 29.2939 74.9839 29.4296C75.0808 29.5447 75.204 29.6348 75.3431 29.6924C75.4906 29.7528 75.6471 29.7882 75.8062 29.7973C75.9754 29.8086 76.1408 29.8143 76.3043 29.8143C76.4092 29.8143 76.4622 29.9192 76.4622 30.1291C76.4668 30.1611 76.4598 30.1938 76.4425 30.2212C76.4251 30.2485 76.3986 30.2688 76.3677 30.2784C76.3079 30.2948 76.2463 30.3033 76.1843 30.3039C75.8946 30.3042 75.6053 30.284 75.3185 30.2434C75.0318 30.2021 74.7424 30.1815 74.4527 30.182C74.1253 30.1817 73.7983 30.2022 73.4735 30.2434C73.1486 30.2838 72.8216 30.304 72.4942 30.3039C72.4075 30.3008 72.3219 30.2833 72.2409 30.2519C72.1952 30.2358 72.156 30.2052 72.1293 30.1647C72.1025 30.1243 72.0897 30.0762 72.0926 30.0279C72.0956 29.9795 72.1143 29.9334 72.1459 29.8965C72.1774 29.8597 72.2201 29.8342 72.2674 29.8238C72.3837 29.7945 72.5122 29.7652 72.6521 29.7358C72.795 29.7055 72.9331 29.6556 73.0623 29.5875C73.1337 29.5454 73.1939 29.4869 73.2382 29.4169C73.2824 29.3469 73.3093 29.2673 73.3166 29.1848C73.3628 28.9541 73.3919 28.7203 73.4035 28.4854C73.4149 28.2528 73.4215 28.0194 73.4215 27.7859C73.4215 27.3316 73.4183 26.9119 73.412 26.5269C73.4057 26.1419 73.4016 25.7232 73.3997 25.2707C73.3997 25.1195 73.3998 24.9626 73.3912 24.7981C73.3872 24.6422 73.3552 24.4882 73.2967 24.3435C73.2611 24.2194 73.1878 24.1094 73.0869 24.0288C73.0012 23.9632 72.9105 23.9044 72.8156 23.853C72.7287 23.8066 72.6464 23.7584 72.5708 23.7131C72.534 23.691 72.5029 23.6604 72.4802 23.6239C72.4575 23.5874 72.4439 23.5461 72.4404 23.5032C72.4637 23.444 72.5068 23.3946 72.5623 23.3633C72.6209 23.3284 72.6729 23.2991 72.7202 23.2754C72.8364 23.2178 72.9498 23.1592 73.0604 23.1006C73.171 23.042 73.2854 22.9786 73.4016 22.9115C73.5006 22.8554 73.5954 22.7923 73.6852 22.7225L73.9999 22.4777C74.0986 22.3949 74.2018 22.3176 74.309 22.2461C74.3948 22.1894 74.4913 22.1508 74.5926 22.1327C74.6068 22.1268 74.6223 22.1246 74.6376 22.1261C74.6529 22.1275 74.6676 22.1327 74.6805 22.1412C74.7023 22.1579 74.7258 22.1725 74.7504 22.1847C74.7785 22.2515 74.7961 22.3223 74.8024 22.3945C74.8147 22.499 74.8207 22.6041 74.8204 22.7093V23.2518C74.8317 23.2055 74.9149 23.1233 75.0652 23.007C75.2479 22.8702 75.4407 22.7473 75.6418 22.6393C75.8887 22.5053 76.146 22.3912 76.4111 22.2981C76.6805 22.2013 76.9643 22.1511 77.2505 22.1497C77.4706 22.1418 77.6894 22.1869 77.8885 22.2811C78.0477 22.3609 78.1879 22.4741 78.2996 22.6129C78.4031 22.7445 78.4776 22.8965 78.518 23.059C78.5566 23.2148 78.576 23.3748 78.5756 23.5354V23.5354Z" fill="white"/>
</svg>
