<svg width="139" height="69" viewBox="0 0 139 69" fill="none" xmlns="http://www.w3.org/2000/svg">
<path d="M17.4012 4.42465C18.6651 5.46485 21.0644 6.91245 24.8111 7.14119V50.9948H2.32917V19.48C3.80042 18.7476 5.15162 17.7956 6.33635 16.6566C8.50691 14.5662 10.8711 11.0148 10.6975 5.55835L17.3945 4.42465H17.4012ZM18.1592 1.92017L8.18133 3.61487C9.87102 14.8166 0 17.9339 0 17.9339V53.3306H27.1487V4.77862C26.6928 4.81702 26.2554 4.83372 25.838 4.83372C20.485 4.83372 18.1659 1.92517 18.1659 1.92517L18.1592 1.92017Z" fill="#007A9B"/>
<path d="M43.9187 11.5508C44.3306 11.7166 44.7269 12.0817 45.1075 12.6461C45.5337 13.2942 45.9158 13.9703 46.2513 14.6697C46.6319 15.4489 47.0388 16.2781 47.4718 17.1575C47.8962 18.0193 48.3811 18.8501 48.9227 19.6436C49.4342 20.3984 50.0358 21.0881 50.7143 21.6973C51.3607 22.2782 52.1493 22.678 53 22.856C53.2229 22.9572 53.4557 23.035 53.6946 23.0881C53.9317 23.1382 54.0502 23.2551 54.0502 23.4421C54.0502 23.5656 53.9584 23.7209 53.7714 23.9062C53.4101 24.0055 53.0354 24.0472 52.6611 24.0298C52.454 24.0298 52.2487 24.0181 52.0433 23.9981C51.8379 23.978 51.661 23.9563 51.5174 23.9363C49.7676 23.628 48.3005 22.9178 47.1161 21.8058C45.9158 20.6707 44.9912 19.276 44.413 17.7285C44.0623 17.0695 43.7379 16.39 43.4396 15.6898C43.1604 15.0259 42.8194 14.3898 42.4211 13.7898C42.0603 13.2475 41.6084 12.7719 41.0853 12.3839C40.5395 12.0005 39.8836 11.8053 39.217 11.8279C38.8046 11.8279 38.5491 11.9114 38.4606 12.075C38.3721 12.2387 38.3204 12.5759 38.3204 13.0635V19.4282C38.2972 19.8401 38.3663 20.2519 38.5224 20.6337C38.6398 20.8839 38.8348 21.0894 39.0784 21.2198C39.3444 21.3529 39.6324 21.4366 39.9283 21.4669C40.2622 21.5092 40.6329 21.5709 41.0403 21.6522C41.1196 21.6796 41.2037 21.6904 41.2874 21.6839C41.4437 21.6826 41.5994 21.7034 41.7499 21.7457C41.8173 21.7623 41.8764 21.8027 41.9163 21.8595C41.9562 21.9162 41.9742 21.9856 41.9669 22.0546C41.9669 22.3434 41.8634 22.5171 41.658 22.5789C41.3548 22.6517 41.0431 22.6831 40.7314 22.6724C39.99 22.6724 39.2487 22.6362 38.5074 22.5638C37.7644 22.492 37.0347 22.4553 36.3134 22.4553C35.6756 22.4553 35.0412 22.487 34.4134 22.5488C33.7856 22.6106 33.1528 22.6406 32.515 22.6406C32.3361 22.6566 32.1559 22.6303 31.989 22.5638C31.9072 22.5121 31.8655 22.3434 31.8655 22.0546C31.8656 21.9844 31.8904 21.9165 31.9356 21.8627C31.9808 21.809 32.0434 21.7729 32.1126 21.7607C32.3201 21.7001 32.5315 21.6538 32.7454 21.6221C33.0025 21.5804 33.2763 21.5336 33.5652 21.4819C33.8524 21.4311 34.129 21.3324 34.3833 21.1897C34.6714 21.0378 34.9084 20.8046 35.0649 20.519C35.2214 20.2333 35.2903 19.908 35.2632 19.5835V13.2187C35.2632 11.4689 35.2788 9.7286 35.31 7.99772C35.3412 6.26684 35.3567 4.52706 35.3567 2.77837C35.3766 2.44093 35.2902 2.10575 35.1096 1.81999C34.9517 1.59955 34.7304 1.43242 34.4752 1.34079C34.2114 1.24784 33.9361 1.19166 33.657 1.17383C33.3682 1.15379 33.096 1.13209 32.8389 1.11205C32.6233 1.10029 32.4103 1.05871 32.2061 0.988496C32.1292 0.963568 32.0629 0.913405 32.0181 0.846132C31.9732 0.778859 31.9524 0.698416 31.959 0.617831C31.959 0.32898 32.0658 0.158675 32.2829 0.106916C32.5018 0.0557627 32.7259 0.0299916 32.9508 0.0301115C33.1762 0.0301115 33.4082 0.0417989 33.6453 0.0618348C33.8824 0.0818707 34.1128 0.0918887 34.3399 0.0918887H37.0281C37.8072 0.0918887 38.5948 0.0763054 39.3906 0.0451384C40.1865 0.0139715 40.974 -0.00105553 41.7532 5.75742e-05C42.4914 0.00661486 43.2266 0.0945245 43.9455 0.262194C44.7313 0.438437 45.4761 0.763776 46.1394 1.22058C46.8402 1.70655 47.4214 2.34542 47.8391 3.08893C48.291 3.8681 48.5175 4.86656 48.5187 6.08429C48.5231 6.7205 48.3802 7.3491 48.1012 7.92092C47.8242 8.48498 47.4589 9.00127 47.0193 9.45033C46.5726 9.90681 46.0751 10.3107 45.5366 10.6542C45.0187 10.99 44.4781 11.2896 43.9187 11.5508ZM45.3714 5.99079C45.3877 5.24731 45.2508 4.50843 44.969 3.82024C44.7199 3.22749 44.3457 2.69554 43.872 2.26078C43.3942 1.8299 42.8318 1.50348 42.2207 1.30239C41.5431 1.07986 40.8334 0.970421 40.1203 0.978478C39.399 0.978478 38.9254 1.10704 38.6994 1.36417C38.4734 1.6213 38.3621 1.99697 38.3655 2.49119V3.54975C38.3655 4.37456 38.3549 5.30122 38.3337 6.32973C38.3126 7.35824 38.3026 8.2849 38.3037 9.10972C38.3037 9.4186 38.3037 9.68241 38.2887 9.89779C38.2734 10.0804 38.2944 10.2643 38.3504 10.4388C38.3783 10.5126 38.423 10.579 38.481 10.6326C38.5389 10.6862 38.6086 10.7256 38.6844 10.7477C38.9512 10.8205 39.2278 10.8515 39.5042 10.8395C40.2806 10.8436 41.0558 10.7765 41.82 10.6391C42.4893 10.5273 43.1273 10.2746 43.6917 9.89779C44.2289 9.52315 44.6556 9.01109 44.9272 8.41514C45.2233 7.78735 45.3714 6.97923 45.3714 5.99079Z" fill="#1D1D1B"/>
<path d="M72.0275 13.0953C72.039 13.3083 71.9965 13.5208 71.904 13.713C71.7951 13.7315 71.6853 13.7443 71.5751 13.7514C71.4669 13.7626 71.3582 13.7682 71.2495 13.7681H63.5607C63.4551 13.7723 63.3509 13.7932 63.2518 13.8299C63.19 13.8299 63.1483 13.9117 63.1282 14.077C63.1066 14.2431 63.096 14.4104 63.0965 14.5779V14.825C63.1138 15.6361 63.2133 16.4434 63.3937 17.2343C63.5495 17.9494 63.8377 18.629 64.2436 19.2379C64.6361 19.8173 65.1669 20.2896 65.788 20.6121C66.4258 20.9527 67.2184 21.123 68.1656 21.123C68.5129 21.1268 68.8598 21.0954 69.2008 21.0295C69.4893 20.9713 69.7696 20.8782 70.0356 20.7523C70.3059 20.6206 70.564 20.4653 70.807 20.2881C71.0641 20.1034 71.3474 19.8975 71.6569 19.6704C71.7356 19.6405 71.8204 19.6302 71.904 19.6403C72.0476 19.6403 72.1194 19.7021 72.1194 19.8257C72.1026 19.9723 72.0447 20.1112 71.9524 20.2264C71.8333 20.4009 71.704 20.5681 71.565 20.7273C71.424 20.8896 71.2746 21.0446 71.1176 21.1914C70.964 21.335 70.8437 21.4385 70.7619 21.5003C70.2103 21.9831 69.5845 22.3738 68.9086 22.6574C68.2272 22.9091 67.5043 23.0297 66.7781 23.013C65.8971 23.0338 65.022 22.8629 64.2135 22.5121C63.4881 22.1841 62.8448 21.6987 62.3302 21.0913C61.8078 20.4681 61.4109 19.7497 61.1614 18.9758C60.8835 18.1344 60.7354 17.2555 60.7223 16.3695C60.7027 15.3837 60.7957 14.3989 60.9994 13.4342C61.1871 12.4928 61.532 11.5897 62.0196 10.7627C62.486 9.9778 63.1277 9.31147 63.8946 8.81593C64.666 8.31169 65.5977 8.05957 66.6896 8.05957C67.9252 8.05957 68.9826 8.32226 69.862 8.84765C70.7413 9.37303 71.3641 10.2535 71.7303 11.489C71.8112 11.753 71.8781 12.0211 71.9307 12.2922C71.9777 12.5579 72.01 12.826 72.0275 13.0953ZM69.4629 11.5809C69.4625 11.2283 69.3832 10.8803 69.2309 10.5624C69.0828 10.2411 68.8793 9.94833 68.6298 9.69751C68.3842 9.45197 68.0963 9.25286 67.7799 9.10978C67.4746 8.96927 67.1426 8.89583 66.8065 8.8944C66.3645 8.897 65.9298 9.00824 65.5409 9.21831C65.1282 9.43504 64.7569 9.72271 64.4439 10.0682C64.1254 10.418 63.8695 10.8202 63.6876 11.257C63.5079 11.6714 63.4131 12.1176 63.4087 12.5693C63.4087 12.6528 63.4755 12.7079 63.6091 12.7363C63.7618 12.7702 63.9171 12.7908 64.0733 12.7981C64.2429 12.8081 64.4129 12.8081 64.5825 12.7981C64.7495 12.788 64.8497 12.783 64.8914 12.783C65.4669 12.783 65.9461 12.788 66.329 12.7981C66.7119 12.8081 67.1805 12.7919 67.7348 12.7496C67.9819 12.7296 68.209 12.7096 68.4144 12.6879C68.5996 12.6722 68.7817 12.6306 68.9554 12.5643C69.1113 12.5003 69.2416 12.3863 69.326 12.2404C69.4292 12.0365 69.4764 11.809 69.4629 11.5809Z" fill="#1D1D1B"/>
<path d="M84.9691 7.84399C85.0173 7.84885 85.0637 7.86537 85.1041 7.89213C85.1445 7.9189 85.1778 7.95509 85.2012 7.9976C85.2598 8.06817 85.2974 8.15379 85.3097 8.24471C85.3091 8.32806 85.2985 8.41103 85.278 8.49182C85.2582 8.57271 85.2481 8.65566 85.2479 8.73893V10.4086L85.3097 10.4403C85.4042 10.3966 85.4884 10.3335 85.5568 10.255C86.2203 9.68316 86.9333 9.17135 87.6873 8.72557C88.4497 8.29244 89.3151 8.07377 90.1918 8.09277C90.8979 8.06894 91.6001 8.20597 92.2455 8.49349C92.7686 8.74232 93.2201 9.11973 93.5578 9.59046C93.9028 10.0911 94.1347 10.6608 94.2374 11.2601C94.3645 11.9479 94.4265 12.6461 94.4227 13.3455C94.4227 13.7574 94.4127 14.1586 94.3926 14.5493C94.3709 14.9417 94.3609 15.3424 94.3609 15.7548V20.2629C94.3609 20.9619 94.5668 21.3944 94.9787 21.5602C95.4633 21.7377 95.9772 21.8215 96.4931 21.8074C96.5373 21.8037 96.5815 21.8155 96.618 21.8408C96.6546 21.8661 96.6812 21.9032 96.6934 21.9459C96.7251 22.0406 96.7409 22.1399 96.7402 22.2398C96.7399 22.3243 96.7241 22.4081 96.6934 22.4869C96.6634 22.5687 96.5749 22.6105 96.4313 22.6105C96.1473 22.611 95.8636 22.5954 95.5814 22.5637C95.2992 22.5328 95.0155 22.5172 94.7316 22.517H92.4141C92.2471 22.517 92.0802 22.517 91.9132 22.5337C91.7462 22.5504 91.5793 22.5587 91.4123 22.5787C91.2453 22.5988 91.0784 22.6155 90.9114 22.6255C90.7444 22.6355 90.5775 22.6405 90.4105 22.6405C90.2295 22.636 90.0488 22.6209 89.8695 22.5954C89.6324 22.5643 89.5139 22.453 89.5139 22.2615C89.5055 22.1749 89.525 22.088 89.5694 22.0132C89.6139 21.9384 89.681 21.8798 89.761 21.8458C89.9533 21.7651 90.1564 21.7128 90.3638 21.6905C90.6008 21.6588 90.8379 21.6187 91.075 21.5669C91.3018 21.5206 91.5044 21.3944 91.646 21.2113C91.8234 20.9688 91.9203 20.6769 91.9232 20.3765C91.9432 20.0258 91.9549 19.727 91.9549 19.4798C91.975 19.0279 91.985 18.5827 91.985 18.1441V14.1753C91.9857 13.6496 91.9601 13.1241 91.9082 12.6009C91.8669 12.1245 91.7414 11.6592 91.5375 11.2267C91.3425 10.8253 91.0373 10.4877 90.6576 10.2533C90.2652 10.0062 89.741 9.88265 89.0814 9.88265C88.6458 9.87665 88.2122 9.94439 87.7991 10.083C87.3886 10.2302 86.991 10.4112 86.6104 10.624C86.4256 10.7275 86.1941 10.8611 85.9158 11.0247C85.6758 11.1511 85.4775 11.3442 85.3447 11.5807C85.2911 11.7673 85.2547 11.9584 85.2362 12.1517C85.2045 12.4105 85.1795 12.7044 85.1594 13.0333C85.1394 13.3622 85.1277 13.7012 85.1277 14.0518V20.0759C85.1205 20.4401 85.2273 20.7973 85.4332 21.0977C85.521 21.2348 85.6362 21.3523 85.7715 21.4428C85.9069 21.5333 86.0594 21.5949 86.2197 21.6237C86.5117 21.6647 86.8063 21.6853 87.1012 21.6855C87.2724 21.6853 87.4422 21.7164 87.6021 21.7773C87.7257 21.8196 87.7875 21.9309 87.7875 22.1112C87.7927 22.1781 87.7845 22.2454 87.7633 22.3091C87.7421 22.3728 87.7083 22.4315 87.6639 22.4819C87.5547 22.5243 87.4432 22.5605 87.33 22.5904C87.2125 22.604 87.0942 22.609 86.976 22.6054C86.5297 22.6057 86.0837 22.5801 85.6403 22.5286C85.2098 22.4767 84.7766 22.4505 84.343 22.4502C83.8221 22.4497 83.3016 22.4759 82.7835 22.5286C82.2826 22.5787 81.7583 22.6054 81.224 22.6054C81.0811 22.6091 80.9389 22.5829 80.8066 22.5286C80.6953 22.4763 80.6396 22.3578 80.6396 22.173C80.6434 22.1082 80.6659 22.0459 80.7044 21.9938C80.743 21.9416 80.7959 21.9017 80.8567 21.8791C81.0244 21.7989 81.2001 21.7367 81.381 21.6938C81.585 21.6426 81.7862 21.5808 81.9837 21.5085C82.1561 21.4515 82.3104 21.3502 82.4312 21.2146C82.6195 20.9336 82.7343 20.6098 82.7651 20.2729C82.8116 19.9297 82.8372 19.584 82.8419 19.2377V12.878C82.8486 12.4528 82.8072 12.0283 82.7184 11.6124C82.7022 11.5076 82.6652 11.407 82.6096 11.3167C82.554 11.2264 82.4808 11.1481 82.3945 11.0865C82.2228 10.9651 82.0358 10.8669 81.8385 10.7943C81.6414 10.7208 81.4661 10.659 81.3125 10.6073C81.1589 10.5555 81.0804 10.4687 81.0804 10.3451V10.2834C81.1635 10.137 81.2774 10.0105 81.4144 9.9127C81.4962 9.85092 81.7183 9.70733 82.0822 9.48026C82.4462 9.25319 82.8353 9.02277 83.251 8.78568C83.6667 8.54859 84.0524 8.3332 84.393 8.13785C84.5736 8.01885 84.7668 7.9203 84.9691 7.84399Z" fill="#1D1D1B"/>
<path d="M116.198 13.095C116.21 13.308 116.167 13.5205 116.075 13.7127C115.968 13.7332 115.86 13.7483 115.751 13.7578C115.64 13.7692 115.528 13.7748 115.417 13.7745H107.735C107.629 13.7787 107.525 13.7995 107.426 13.8363C107.364 13.8363 107.322 13.9181 107.302 14.0834C107.281 14.2495 107.27 14.4168 107.271 14.5843V14.8314C107.288 15.6423 107.386 16.4495 107.565 17.2407C107.72 17.9558 108.009 18.6353 108.414 19.2443C108.807 19.8237 109.338 20.296 109.959 20.6184C110.597 20.9591 111.389 21.1294 112.336 21.1294C112.684 21.1332 113.031 21.1018 113.372 21.0359C113.66 20.9776 113.94 20.8846 114.206 20.7587C114.477 20.627 114.735 20.4716 114.978 20.2945C115.235 20.1098 115.518 19.9038 115.828 19.6768C115.906 19.6469 115.991 19.6365 116.075 19.6467C116.218 19.6467 116.29 19.7085 116.29 19.832C116.273 19.9787 116.216 20.1176 116.123 20.2328C116.004 20.4073 115.875 20.5745 115.736 20.7337C115.595 20.8964 115.446 21.0514 115.288 21.1978C115.175 21.3068 115.057 21.4099 114.933 21.5067C114.381 21.9895 113.755 22.3802 113.079 22.6638C112.398 22.9156 111.675 23.0363 110.949 23.0194C110.068 23.0402 109.193 22.8693 108.384 22.5185C107.659 22.1905 107.016 21.7051 106.501 21.0976C105.979 20.4745 105.582 19.7561 105.332 18.9822C105.058 18.1441 104.912 17.2693 104.9 16.3875C104.88 15.4018 104.973 14.417 105.177 13.4523C105.365 12.5108 105.709 11.6077 106.197 10.7808C106.662 9.99697 107.301 9.3308 108.065 8.83399C108.838 8.32976 109.77 8.07764 110.86 8.07764C112.096 8.07764 113.153 8.34033 114.033 8.86572C114.912 9.3911 115.535 10.2716 115.901 11.5071C115.982 11.7711 116.049 12.0392 116.101 12.3102C116.148 12.5699 116.18 12.8318 116.198 13.095ZM113.634 11.5806C113.633 11.2282 113.554 10.8804 113.403 10.5621C113.254 10.2411 113.05 9.9484 112.801 9.69721C112.555 9.45167 112.267 9.25256 111.951 9.10949C111.645 8.96897 111.313 8.89553 110.977 8.8941C110.535 8.8967 110.101 9.00794 109.712 9.21801C109.299 9.43474 108.928 9.72241 108.615 10.0679C108.296 10.4177 108.04 10.8199 107.858 11.2567C107.679 11.6711 107.584 12.1173 107.58 12.569C107.58 12.6525 107.646 12.7076 107.782 12.736C107.934 12.77 108.088 12.7907 108.244 12.7978C108.411 12.8075 108.578 12.8075 108.745 12.7978C108.912 12.7877 109.012 12.7827 109.054 12.7827C109.63 12.7827 110.11 12.7877 110.491 12.7978C110.873 12.8078 111.341 12.7922 111.896 12.751C112.143 12.731 112.37 12.7109 112.575 12.6892C112.76 12.6738 112.943 12.6322 113.116 12.5657C113.273 12.5025 113.403 12.3884 113.487 12.2418C113.594 12.0384 113.644 11.8101 113.634 11.5806Z" fill="#1D1D1B"/>
<path d="M136.553 13.095C136.564 13.308 136.522 13.5205 136.429 13.7127C136.216 13.752 135.999 13.7727 135.782 13.7745H128.09C127.984 13.7787 127.88 13.7995 127.781 13.8363C127.719 13.8363 127.677 13.9181 127.657 14.0834C127.637 14.2496 127.627 14.4169 127.627 14.5843V14.8314C127.643 15.6424 127.742 16.4496 127.921 17.2407C128.076 17.9557 128.364 18.6352 128.769 19.2443C129.162 19.8233 129.693 20.2955 130.313 20.6184C130.951 20.9591 131.744 21.1294 132.693 21.1294C133.04 21.1332 133.387 21.1018 133.728 21.0359C134.016 20.9778 134.297 20.8847 134.563 20.7587C134.833 20.6266 135.092 20.4713 135.336 20.2945C135.593 20.1098 135.876 19.9038 136.184 19.6768C136.263 19.6472 136.348 19.6369 136.431 19.6467C136.575 19.6467 136.648 19.7085 136.648 19.832C136.632 19.9788 136.574 20.1179 136.481 20.2328C136.363 20.4072 136.234 20.5745 136.096 20.7337C135.95 20.9006 135.802 21.0542 135.648 21.1978C135.494 21.3414 135.374 21.4449 135.292 21.5067C134.74 21.9888 134.115 22.3794 133.439 22.6638C132.757 22.9154 132.034 23.0361 131.307 23.0194C130.426 23.0402 129.552 22.8693 128.744 22.5185C128.018 22.19 127.375 21.7048 126.859 21.0976C126.337 20.474 125.94 19.7558 125.69 18.9822C125.417 18.1439 125.271 17.2692 125.258 16.3875C125.239 15.4017 125.332 14.4169 125.537 13.4523C125.724 12.5109 126.068 11.6078 126.555 10.7808C127.021 9.9969 127.661 9.33074 128.425 8.83399C129.196 8.32976 130.128 8.07764 131.22 8.07764C132.456 8.07764 133.513 8.34033 134.392 8.86572C135.272 9.3911 135.895 10.2716 136.261 11.5071C136.342 11.7711 136.41 12.0392 136.463 12.3102C136.507 12.57 136.537 12.832 136.553 13.095ZM133.99 11.5806C133.99 11.228 133.91 10.88 133.758 10.5621C133.609 10.2407 133.405 9.94796 133.155 9.69721C132.91 9.45169 132.623 9.25257 132.307 9.10949C132.002 8.96917 131.67 8.89574 131.334 8.8941C130.891 8.89691 130.456 9.00812 130.066 9.21801C129.654 9.43476 129.283 9.72244 128.971 10.0679C128.651 10.4172 128.395 10.8195 128.213 11.2567C128.034 11.6712 127.94 12.1174 127.936 12.569C127.936 12.6525 128.003 12.7076 128.136 12.736C128.289 12.77 128.444 12.7907 128.6 12.7978C128.77 12.8078 128.94 12.8078 129.11 12.7978C129.277 12.7877 129.377 12.7827 129.419 12.7827C129.994 12.7827 130.473 12.7877 130.854 12.7978C131.236 12.8078 131.705 12.7922 132.26 12.751C132.507 12.731 132.733 12.7109 132.94 12.6892C133.125 12.6736 133.307 12.632 133.481 12.5657C133.636 12.5037 133.767 12.3922 133.853 12.2484C133.957 12.0418 134.004 11.8114 133.99 11.5806Z" fill="#1D1D1B"/>
<path d="M52.135 30.9487C51.9689 31.4534 51.8701 31.9777 51.8411 32.5082C51.7899 33.1571 51.7282 33.7905 51.6558 34.4083C51.5983 34.9514 51.495 35.4887 51.3469 36.0145C51.2134 36.467 50.993 36.694 50.6791 36.694C50.4336 36.694 50.2884 36.5955 50.2483 36.4002C50.2053 36.1553 50.1997 35.9054 50.2316 35.6588C50.2633 35.36 50.2884 35.0361 50.3101 34.6854C50.3321 34.3485 50.2791 34.0109 50.1548 33.697C50.0328 33.4306 49.8188 33.2172 49.552 33.0959C49.216 32.931 48.8568 32.8184 48.4868 32.762C48.0524 32.6873 47.6143 32.636 47.1744 32.6084C46.7103 32.5772 46.2728 32.5616 45.8621 32.5616C45.5532 32.5616 45.2744 32.5616 45.0273 32.5767C44.7802 32.5917 44.5748 32.5917 44.4095 32.5917C44.2442 32.5917 44.1323 32.5917 44.0088 32.5767C43.9487 32.5714 43.8882 32.5798 43.8319 32.6012C43.7755 32.6226 43.7247 32.6564 43.6832 32.7002C43.5665 32.844 43.4919 33.0174 43.4678 33.2011C43.4072 33.5528 43.3814 33.9096 43.391 34.2663L43.3292 38.0348C43.288 39.848 43.293 41.6602 43.3443 43.4712C43.3955 45.2822 43.4005 47.0943 43.3593 48.9076C43.3593 49.2415 43.3643 49.571 43.3743 49.896C43.3848 50.2278 43.421 50.5583 43.4828 50.8845C43.5864 51.4622 43.844 51.8484 44.2559 52.0432C44.6647 52.238 45.1032 52.3633 45.5532 52.4139L46.7721 52.5525C47.1327 52.5942 47.313 52.7378 47.313 52.9849C47.313 53.3188 47.2412 53.4941 47.0976 53.5108C46.8926 53.5341 46.6862 53.5441 46.4799 53.5409C45.6551 53.5409 44.8364 53.5153 44.0238 53.4641C43.2112 53.4129 42.3925 53.3873 41.5677 53.3873C40.8264 53.3873 40.0901 53.4129 39.3588 53.4641C38.6275 53.5153 37.8917 53.5409 37.1515 53.5409C36.9807 53.5406 36.8102 53.5305 36.6406 53.5108C36.4653 53.4891 36.3784 53.3656 36.3784 53.1402C36.3661 53.0408 36.3866 52.9401 36.437 52.8535C36.4874 52.767 36.5647 52.6993 36.6573 52.661C36.8441 52.5886 37.0429 52.5518 37.2433 52.5525C37.3781 52.5567 37.513 52.5466 37.6457 52.5224C38.136 52.484 38.6189 52.3801 39.0816 52.2135C39.4065 52.0953 39.6905 51.886 39.8997 51.6108C40.0983 51.32 40.2253 50.9865 40.2704 50.6374C40.3379 50.1568 40.3686 49.6717 40.3622 49.1864V34.2229C40.3622 34.1194 40.3572 33.9291 40.3472 33.6519C40.3447 33.4602 40.3296 33.2689 40.3021 33.0792C40.2609 32.8944 40.0239 32.7659 39.5909 32.6935C39.1316 32.6193 38.6669 32.583 38.2017 32.585H36.2899C35.824 32.5838 35.3604 32.6513 34.9141 32.7854C34.4313 32.9448 33.9922 33.2146 33.6318 33.5734C33.4701 33.7712 33.3353 33.9896 33.2311 34.2229C33.0642 34.5569 32.8972 34.8908 32.7069 35.2581C32.5165 35.6254 32.3395 35.9427 32.1659 36.2299C31.9922 36.517 31.862 36.6623 31.7802 36.6623C31.6159 36.675 31.4523 36.6314 31.316 36.5388C31.2575 36.478 31.2133 36.405 31.1867 36.3249C31.1601 36.2449 31.1518 36.1599 31.1624 36.0763C31.1833 35.5989 31.2664 35.1263 31.4095 34.6704C31.6114 33.8542 31.7454 33.0226 31.8102 32.1843C31.8303 31.9572 31.852 31.7151 31.872 31.458C31.8881 31.2215 31.9347 30.988 32.0106 30.7634C32.0787 30.5713 32.1934 30.3992 32.3445 30.2625C32.5164 30.1176 32.738 30.0451 32.9623 30.0605C33.0155 30.0623 33.0674 30.0774 33.1132 30.1046C33.159 30.1317 33.1973 30.17 33.2244 30.2158C33.2962 30.3193 33.3914 30.4362 33.4866 30.5714C33.6059 30.7199 33.7465 30.8499 33.904 30.9571C34.1218 31.0941 34.373 31.1687 34.6303 31.1725C35.8658 31.2348 37.132 31.2816 38.4288 31.3127C39.7255 31.3439 40.9923 31.3589 42.2289 31.3578C43.2174 31.3578 44.1696 31.3478 45.0857 31.3277C46.0018 31.3077 46.9541 31.2971 47.9425 31.296C48.2508 31.296 48.5647 31.291 48.8842 31.281C49.1997 31.2716 49.5146 31.2459 49.8275 31.2042C50.0557 31.1715 50.2699 31.0748 50.4453 30.9254C50.6036 30.7816 50.7463 30.6215 50.8711 30.4478C50.9946 30.2809 51.0965 30.1339 51.1783 30.0004C51.2029 29.9452 51.2417 29.8974 51.2906 29.862C51.3396 29.8265 51.397 29.8045 51.4571 29.7983C51.8078 29.7983 52.0281 29.9336 52.125 30.2007C52.2164 30.4411 52.22 30.706 52.135 30.9487Z" fill="#1D1D1B"/>
<path d="M67.0551 41.5744C67.0555 41.8027 67.0136 42.0292 66.9316 42.2423C66.8572 42.4479 66.7221 42.626 66.5442 42.7532C66.3467 42.8823 66.1114 42.9411 65.8764 42.9202C65.5372 42.8809 65.216 42.7466 64.9497 42.5328C64.8658 42.4822 64.7929 42.4151 64.7356 42.3356C64.6782 42.2561 64.6374 42.1659 64.6158 42.0703C64.564 41.8649 64.5072 41.6579 64.4488 41.4525C64.3929 41.2612 64.3097 41.079 64.2017 40.9116C64.1365 40.8286 64.0512 40.7638 63.9539 40.7231C63.8566 40.6825 63.7505 40.6675 63.6457 40.6795C63.2228 40.6773 62.8034 40.7561 62.4102 40.9116C62.0348 41.0576 61.6814 41.2548 61.3599 41.4976C61.0632 41.7215 60.8116 41.9997 60.6186 42.3174C60.4415 42.5945 60.345 42.9153 60.3398 43.2441V50.7492C60.3434 50.8845 60.3596 51.0192 60.3882 51.1516C60.4133 51.457 60.5297 51.7479 60.7221 51.9864C60.8924 52.19 61.1096 52.3493 61.3549 52.4506C61.6155 52.5572 61.892 52.6199 62.1731 52.6359C62.4719 52.6559 62.7658 52.6659 63.053 52.6659C63.24 52.6659 63.3318 52.8513 63.3318 53.2219C63.3403 53.2786 63.3281 53.3365 63.2974 53.3849C63.2668 53.4334 63.2197 53.4691 63.1648 53.4858C63.0593 53.5148 62.9504 53.5299 62.8409 53.5308C62.3292 53.5313 61.8182 53.4956 61.3115 53.424C60.8056 53.3509 60.295 53.3147 59.7838 53.3154C59.2055 53.3149 58.6277 53.3512 58.054 53.424C57.4796 53.4953 56.9014 53.531 56.3226 53.5308C56.1694 53.5251 56.0182 53.4941 55.8751 53.439C55.7956 53.4166 55.7261 53.3676 55.6784 53.3001C55.6307 53.2326 55.6076 53.1508 55.613 53.0683C55.6065 52.977 55.6347 52.8865 55.6919 52.815C55.7492 52.7436 55.8313 52.6963 55.9219 52.6826C56.1272 52.6309 56.3543 52.5791 56.6014 52.5274C56.8544 52.4738 57.0988 52.3856 57.3277 52.2652C57.4533 52.1905 57.5593 52.0871 57.6371 51.9634C57.7148 51.8398 57.7622 51.6995 57.7752 51.554C57.8566 51.1464 57.9085 50.7335 57.9305 50.3184C57.9505 49.9077 57.9605 49.4958 57.9605 49.0829C57.9605 48.2803 57.9555 47.539 57.9455 46.8589C57.9338 46.1793 57.9305 45.438 57.9305 44.6349C57.9305 44.3677 57.9305 44.0906 57.9138 43.8001C57.9067 43.5245 57.8502 43.2525 57.7468 42.997C57.6826 42.7778 57.5526 42.5837 57.3745 42.441C57.2187 42.3262 57.054 42.224 56.8819 42.1354C56.7266 42.0536 56.583 41.9684 56.4495 41.8883C56.384 41.8496 56.3287 41.7957 56.2883 41.7312C56.2479 41.6667 56.2236 41.5935 56.2174 41.5176C56.2599 41.4132 56.3363 41.3261 56.4344 41.2705C56.5363 41.2087 56.6298 41.157 56.7116 41.1152C56.917 41.0134 57.1173 40.9099 57.3144 40.8064C57.5114 40.7028 57.7101 40.591 57.9171 40.4724C58.0893 40.3734 58.2539 40.2618 58.4097 40.1385L58.9673 39.7061C59.1455 39.5674 59.3311 39.4387 59.5233 39.3204C59.6748 39.2199 59.8453 39.1517 60.0242 39.12C60.0491 39.11 60.0761 39.1061 60.1029 39.1087C60.1296 39.1113 60.1553 39.1204 60.1778 39.135C60.2167 39.1642 60.258 39.1899 60.3014 39.2118C60.3518 39.3296 60.3828 39.4548 60.3932 39.5825C60.4158 39.767 60.4264 39.9527 60.4249 40.1385V41.0969C60.445 41.0151 60.5919 40.8698 60.8574 40.6644C61.1808 40.4229 61.5218 40.2058 61.8775 40.0149C62.3137 39.7779 62.7682 39.5764 63.2366 39.4122C63.7124 39.2412 64.2138 39.1526 64.7193 39.1501C65.1081 39.1361 65.4946 39.2157 65.8463 39.3821C66.1271 39.5232 66.3743 39.7231 66.5709 39.9682C66.7542 40.2006 66.8863 40.4692 66.9583 40.7563C67.023 41.0242 67.0555 41.2988 67.0551 41.5744Z" fill="#1D1D1B"/>
<path d="M86.6371 51.1181C86.6222 51.2121 86.6021 51.3052 86.577 51.397C86.4255 52.0346 86.0535 52.5982 85.5267 52.9881C85.0024 53.385 84.3611 53.5965 83.7035 53.5892C83.0245 53.5892 82.4891 53.3733 82.0973 52.9414C81.6959 52.4911 81.4095 51.9503 81.2624 51.3652C81.0146 51.6958 80.7294 51.9967 80.4126 52.2618C80.0617 52.5579 79.6845 52.8211 79.2856 53.0483C78.8808 53.282 78.4506 53.4686 78.0033 53.6043C77.5882 53.7348 77.1561 53.8029 76.721 53.8063C75.6713 53.8063 74.935 53.5024 74.512 52.8946C74.089 52.2869 73.8781 51.52 73.8792 50.5939C73.8762 50.1516 73.9996 49.7177 74.2348 49.3433C74.4773 48.9536 74.7793 48.6043 75.1298 48.3081C75.4894 47.9992 75.8813 47.73 76.2985 47.505C76.6836 47.2954 77.0812 47.1097 77.489 46.949C78.2081 46.6818 78.8615 46.4503 79.4492 46.2544C80.0369 46.0585 80.7009 45.8676 81.4411 45.6817V43.3041C81.4411 42.4392 81.2819 41.7441 80.9636 41.2187C80.6452 40.6933 80.0224 40.4306 79.0952 40.4306C78.5811 40.4068 78.0698 40.5185 77.6126 40.7546C76.9713 41.1133 76.4929 41.7053 76.2768 42.4075C76.195 42.6964 76.1332 42.9084 76.0915 43.057C75.9777 43.4013 75.749 43.6961 75.4437 43.8918C75.1262 44.1122 74.7482 44.2288 74.3617 44.2258C74.2699 44.2384 74.1767 44.2147 74.1019 44.1599C74.0272 44.1051 73.9766 44.0233 73.961 43.9319C73.9215 43.7543 73.9008 43.5729 73.8992 43.3909C73.8992 42.8967 74.1052 42.3875 74.517 41.8632C74.9554 41.3104 75.4639 40.817 76.0297 40.3956C76.6329 39.9462 77.2918 39.5769 77.9899 39.2969C78.5934 39.0295 79.2434 38.8826 79.9033 38.8645C80.0845 38.8674 80.2652 38.8824 80.4443 38.9096C80.6614 38.9413 80.8818 38.978 81.1122 39.0181C81.3313 39.0581 81.5481 39.1099 81.7617 39.1734C81.9335 39.2211 82.1011 39.2831 82.2626 39.3587C82.9416 39.7093 83.3634 40.1674 83.5282 40.7329C83.6954 41.3492 83.7746 41.9861 83.7636 42.6246C83.7636 43.4037 83.7536 44.2325 83.7335 45.1107C83.7135 45.9889 83.7029 46.8176 83.7018 47.5968C83.7018 47.7821 83.7018 48.056 83.6868 48.4149C83.6718 48.7739 83.6751 49.1463 83.6868 49.5269C83.6985 49.9076 83.7168 50.2683 83.7486 50.6089C83.751 50.85 83.8081 51.0875 83.9155 51.3035C83.9953 51.4466 84.1286 51.5523 84.2862 51.5973C84.4481 51.6489 84.6171 51.6748 84.7871 51.6741C84.9783 51.6817 85.1687 51.6445 85.3431 51.5656C85.4773 51.5004 85.6019 51.4173 85.7137 51.3185C85.8156 51.2267 85.9091 51.1398 85.9909 51.0564C86.0661 50.978 86.1634 50.9244 86.2697 50.9027C86.5152 50.841 86.6371 50.9128 86.6371 51.1181ZM81.4261 47.1443C81.419 47.015 81.4039 46.8862 81.381 46.7586C81.1956 46.8004 80.9786 46.8555 80.7315 46.9256C80.4844 46.9957 80.2306 47.0809 79.9751 47.1727C79.7197 47.2646 79.4742 47.3581 79.2338 47.4516C78.9934 47.5451 78.7863 47.6185 78.601 47.6836C78.0428 47.8903 77.5252 48.1931 77.0716 48.5786C76.8453 48.7658 76.665 49.0023 76.5443 49.27C76.4236 49.5377 76.3658 49.8295 76.3753 50.123C76.3547 50.6274 76.4957 51.1252 76.7777 51.5439C77.0449 51.9146 77.5085 52.0999 78.1686 52.0999C78.625 52.0936 79.074 51.9828 79.4809 51.776C79.8915 51.5823 80.2633 51.3152 80.5779 50.9879C80.7825 50.7688 80.9586 50.5248 81.1022 50.2616C81.262 50.0139 81.3673 49.735 81.411 49.4435C81.4082 49.3458 81.4132 49.2481 81.4261 49.1513C81.434 49.1156 81.439 49.0793 81.4411 49.0427V47.6836C81.4455 47.4833 81.4405 47.3035 81.4261 47.1443Z" fill="#1D1D1B"/>
<path d="M97.9122 39.9365C97.9122 41.7899 97.9072 43.6176 97.8972 45.4197C97.8872 47.2218 97.8816 49.0495 97.8805 50.9029C97.8805 51.5618 97.8654 52.2414 97.8354 52.9415C97.8053 53.6417 97.7497 54.3212 97.6684 54.9802C97.5292 56.2153 97.0475 57.387 96.2776 58.3629C95.512 59.3221 94.6156 60.1691 93.6145 60.8791C93.4612 60.9959 93.3018 61.1046 93.137 61.2046C92.9775 61.3181 92.7909 61.3872 92.596 61.405H92.5342C92.4925 61.3215 92.4574 61.238 92.4257 61.1729C92.393 61.0977 92.3459 61.0297 92.2871 60.9726C92.3279 60.8888 92.3795 60.8107 92.4407 60.7405C92.5025 60.6687 92.5643 60.5902 92.6261 60.5084C92.9767 60.0954 93.3217 59.6992 93.6612 59.3196C94.0149 58.919 94.3209 58.4785 94.5729 58.0073C94.8534 57.4706 95.0611 56.899 95.1906 56.3075C95.3151 55.7225 95.3977 55.1294 95.4378 54.5327C95.4778 53.9249 95.4945 53.3172 95.4845 52.7094C95.4745 52.1017 95.4678 51.5006 95.4678 50.9029C95.4678 49.7898 95.4734 48.6727 95.4845 47.5519C95.4956 46.431 95.5006 45.3134 95.4995 44.1992C95.4995 43.9738 95.4995 43.6799 95.4845 43.3193C95.4913 43.0374 95.4343 42.7577 95.3175 42.5011C95.2124 42.2731 95.0328 42.0877 94.8083 41.9752C94.6047 41.8778 94.3922 41.8001 94.1738 41.7431C93.9685 41.693 93.7881 41.6413 93.6345 41.5895C93.564 41.5713 93.5021 41.5289 93.4597 41.4697C93.4173 41.4105 93.397 41.3382 93.4024 41.2656C93.4048 41.2026 93.4196 41.1406 93.446 41.0833C93.4723 41.026 93.5097 40.9745 93.5561 40.9317C93.6796 40.8498 93.9434 40.7063 94.3441 40.4992C94.7448 40.2922 95.179 40.0785 95.6264 39.8514C96.0739 39.6243 96.4963 39.4239 96.877 39.2486C97.1044 39.1249 97.3493 39.0365 97.6033 38.9865C97.656 38.9837 97.7086 38.9935 97.7567 39.015C97.8049 39.0365 97.8473 39.069 97.8805 39.1101C97.8805 39.2536 97.8805 39.3922 97.8972 39.5275C97.9139 39.6627 97.9122 39.798 97.9122 39.9365ZM98.1894 31.7552C98.1939 31.9776 98.1541 32.1986 98.0721 32.4053C97.9901 32.612 97.8676 32.8003 97.7118 32.959C97.5595 33.1212 97.3748 33.2496 97.1698 33.3358C96.9647 33.4221 96.7438 33.4644 96.5214 33.4599C96.0916 33.4465 95.6832 33.2699 95.3792 32.9658C95.0752 32.6618 94.8985 32.2534 94.8851 31.8237C94.8745 31.3766 95.0407 30.9434 95.3476 30.6182C95.4956 30.4564 95.6764 30.3281 95.878 30.2417C96.0795 30.1553 96.2971 30.1129 96.5164 30.1173C96.7357 30.1115 96.954 30.1496 97.1584 30.2293C97.3628 30.309 97.5493 30.4287 97.7068 30.5814C97.8645 30.7321 97.9888 30.914 98.0719 31.1156C98.155 31.3172 98.195 31.5339 98.1894 31.7519V31.7552Z" fill="#1D1D1B"/>
<path d="M119.688 51.1181C119.673 51.2122 119.653 51.3053 119.626 51.397C119.475 52.0349 119.103 52.5986 118.576 52.9881C118.052 53.385 117.412 53.5965 116.755 53.5892C116.074 53.5892 115.539 53.3733 115.148 52.9414C114.747 52.491 114.461 51.9502 114.313 51.3652C114.066 51.6962 113.781 51.9971 113.464 52.2618C113.113 52.5586 112.736 52.8219 112.337 53.0483C111.932 53.282 111.503 53.4686 111.056 53.6043C110.641 53.7347 110.209 53.8028 109.774 53.8063C108.724 53.8063 107.988 53.5024 107.565 52.8946C107.142 52.2869 106.931 51.52 106.932 50.5939C106.929 50.1519 107.052 49.7183 107.286 49.3433C107.529 48.954 107.832 48.6048 108.182 48.3081C108.542 47.9992 108.934 47.73 109.351 47.505C109.736 47.2955 110.133 47.1098 110.54 46.949C111.261 46.6818 111.915 46.4503 112.502 46.2544C113.089 46.0585 113.752 45.8676 114.494 45.6817V43.3041C114.494 42.4392 114.334 41.7441 114.015 41.2187C113.695 40.6933 113.073 40.4306 112.148 40.4306C111.634 40.407 111.123 40.5187 110.665 40.7546C110.321 40.9483 110.022 41.2115 109.785 41.5276C109.586 41.7928 109.435 42.0906 109.338 42.4075C109.254 42.6964 109.193 42.9084 109.153 43.057C109.038 43.4015 108.809 43.6962 108.503 43.8918C108.186 44.1124 107.809 44.229 107.423 44.2258C107.331 44.2384 107.237 44.2148 107.162 44.16C107.087 44.1052 107.036 44.0235 107.02 43.9319C106.981 43.7543 106.96 43.5729 106.959 43.3909C106.959 42.8967 107.165 42.3875 107.576 41.8632C108.016 41.3107 108.525 40.8174 109.091 40.3956C109.69 39.9469 110.345 39.5776 111.039 39.2969C111.643 39.0294 112.294 38.8825 112.954 38.8645C113.136 38.8674 113.316 38.8825 113.495 38.9096C113.712 38.9413 113.933 38.978 114.163 39.0181C114.382 39.0581 114.598 39.1099 114.811 39.1734C114.983 39.2211 115.15 39.2831 115.312 39.3587C115.992 39.7093 116.414 40.1674 116.579 40.7329C116.748 41.349 116.83 41.9857 116.823 42.6246C116.823 43.4037 116.812 44.2325 116.791 45.1107C116.77 45.9889 116.76 46.8176 116.761 47.5968C116.761 47.7821 116.761 48.056 116.746 48.4149C116.731 48.7739 116.734 49.1463 116.746 49.5269C116.758 49.9076 116.776 50.2683 116.808 50.6089C116.811 50.8499 116.868 51.0872 116.975 51.3035C117.055 51.4466 117.188 51.5523 117.346 51.5973C117.508 51.6487 117.677 51.6746 117.846 51.6741C118.038 51.6821 118.228 51.6449 118.402 51.5656C118.537 51.5004 118.661 51.4173 118.773 51.3185C118.877 51.2267 118.968 51.1398 119.052 51.0564C119.127 50.9781 119.223 50.9245 119.329 50.9027C119.568 50.846 119.688 50.9178 119.688 51.1181ZM114.485 47.1443C114.478 47.0149 114.462 46.8861 114.439 46.7586C114.253 46.8004 114.038 46.8555 113.791 46.9256C113.544 46.9957 113.29 47.0809 113.033 47.1727C112.776 47.2646 112.532 47.3581 112.293 47.4516C112.054 47.5451 111.844 47.6185 111.659 47.6836C111.101 47.8903 110.584 48.1932 110.131 48.5786C109.905 48.7658 109.724 49.0023 109.604 49.27C109.483 49.5377 109.425 49.8295 109.435 50.123C109.413 50.6275 109.554 51.1256 109.837 51.5439C110.104 51.9146 110.567 52.0999 111.226 52.0999C111.683 52.0938 112.132 51.983 112.539 51.776C112.949 51.5827 113.321 51.3156 113.636 50.9879C113.841 50.7693 114.018 50.5252 114.162 50.2616C114.321 50.0135 114.426 49.7348 114.47 49.4435C114.468 49.3458 114.473 49.2481 114.485 49.1513C114.493 49.1156 114.498 49.0793 114.5 49.0427V47.6836C114.499 47.4833 114.494 47.3035 114.485 47.1443Z" fill="#1D1D1B"/>
<path d="M137.85 41.5745C137.851 41.8029 137.809 42.0293 137.727 42.2424C137.653 42.4478 137.519 42.626 137.341 42.7533C137.144 42.882 136.908 42.9408 136.673 42.9203C136.334 42.8804 136.013 42.7462 135.747 42.5329C135.664 42.4816 135.593 42.4142 135.537 42.3347C135.482 42.2553 135.443 42.1653 135.423 42.0704C135.371 41.865 135.314 41.658 135.256 41.4526C135.201 41.2611 135.117 41.0788 135.009 40.9117C134.944 40.8287 134.858 40.7639 134.761 40.7232C134.664 40.6826 134.557 40.6676 134.453 40.6796C134.03 40.6774 133.61 40.7562 133.217 40.9117C132.842 41.0581 132.489 41.2553 132.167 41.4977C131.87 41.7216 131.619 41.9998 131.426 42.3175C131.25 42.595 131.154 42.9157 131.148 43.2442V50.7493C131.147 50.8842 131.158 51.0189 131.182 51.1517C131.204 51.456 131.317 51.7468 131.506 51.9865C131.677 52.1898 131.895 52.349 132.14 52.4507C132.401 52.5573 132.677 52.62 132.958 52.636C133.257 52.656 133.549 52.6661 133.838 52.6661C134.024 52.6661 134.117 52.8514 134.117 53.2221C134.125 53.2787 134.113 53.3364 134.082 53.3847C134.052 53.4331 134.005 53.469 133.95 53.4859C133.845 53.5148 133.736 53.5299 133.626 53.5309C133.115 53.5315 132.603 53.4958 132.097 53.4241C131.59 53.3511 131.079 53.3148 130.567 53.3156C129.989 53.3151 129.411 53.3514 128.838 53.4241C128.264 53.4954 127.686 53.5311 127.108 53.5309C126.955 53.5255 126.803 53.4945 126.66 53.4391C126.58 53.4106 126.51 53.3565 126.463 53.2851C126.416 53.2137 126.393 53.1288 126.398 53.0433C126.404 52.9578 126.437 52.8764 126.492 52.8113C126.548 52.7463 126.624 52.7011 126.707 52.6828C126.913 52.631 127.14 52.5792 127.387 52.5275C127.639 52.4739 127.883 52.3857 128.111 52.2653C128.237 52.191 128.344 52.0877 128.422 51.964C128.5 51.8403 128.548 51.6998 128.56 51.5541C128.642 51.1466 128.693 50.7336 128.714 50.3185C128.734 49.9078 128.746 49.4954 128.746 49.083C128.746 48.2804 128.74 47.5391 128.729 46.859C128.718 46.1789 128.711 45.4392 128.707 44.64C128.707 44.3729 128.707 44.0957 128.692 43.8052C128.685 43.5296 128.629 43.2576 128.525 43.0021C128.462 42.7828 128.333 42.5885 128.155 42.4461C128.003 42.3302 127.843 42.2264 127.676 42.1355C127.522 42.0537 127.377 41.9686 127.243 41.8884C127.178 41.8494 127.123 41.7954 127.083 41.7309C127.043 41.6665 127.019 41.5934 127.013 41.5177C127.054 41.4131 127.13 41.3258 127.228 41.2706C127.332 41.2089 127.423 41.1571 127.507 41.1154C127.712 41.0135 127.913 40.91 128.108 40.8065C128.303 40.703 128.505 40.5911 128.711 40.4725C128.886 40.3734 129.053 40.2618 129.212 40.1386L129.768 39.7062C129.942 39.5599 130.124 39.4233 130.314 39.2971C130.465 39.1969 130.636 39.1288 130.815 39.0967C130.84 39.0864 130.867 39.0824 130.894 39.085C130.921 39.0876 130.947 39.0968 130.97 39.1118C131.008 39.1413 131.05 39.167 131.093 39.1886C131.143 39.3066 131.174 39.4317 131.185 39.5592C131.207 39.7438 131.217 39.9294 131.217 40.1152V41.0736C131.237 40.9918 131.384 40.8465 131.649 40.6412C131.972 40.3996 132.313 40.1825 132.668 39.9917C133.104 39.755 133.559 39.5534 134.027 39.3889C134.503 39.218 135.004 39.1293 135.51 39.1268C135.898 39.1129 136.285 39.1924 136.637 39.3589C136.918 39.4999 137.166 39.6998 137.363 39.9449C137.546 40.1774 137.677 40.446 137.749 40.733C137.817 41.0083 137.851 41.2909 137.85 41.5745Z" fill="#1D1D1B"/>
<path d="M4.9706 58.5917C5.26237 58.5875 5.5535 58.62 5.83715 58.6885C6.1294 58.7675 6.4175 58.8611 6.70036 58.969V58.3579H6.96751V61.3817H6.70036V59.6385C6.25062 59.1892 5.65193 58.9202 5.01735 58.8822H4.87209C4.51685 58.8792 4.17014 58.991 3.88365 59.2011C3.53694 59.4696 3.26406 59.8218 3.09056 60.2246C2.88581 60.663 2.73822 61.126 2.65144 61.6021C2.55385 62.1328 2.49802 62.6704 2.48448 63.2099C2.50256 63.3068 2.51039 63.4053 2.50785 63.5038C2.51405 64.2509 2.57994 64.9962 2.70487 65.7328C2.8022 66.3166 3.04574 66.8663 3.41281 67.3307C3.76232 67.7759 4.27045 68.0236 4.9372 68.0737C5.02255 68.0728 5.10787 68.0773 5.19266 68.087L5.41139 68.1104C6.14427 68.1071 6.85296 67.8478 7.41498 67.3774V67.8065C6.75557 68.1602 6.0194 68.3465 5.27114 68.3491C4.64755 68.3514 4.03138 68.2139 3.4679 67.9468C2.91391 67.6909 2.42008 67.3211 2.01864 66.8615C1.60703 66.4055 1.28425 65.8766 1.06694 65.302C0.669276 64.2359 0.635595 63.0681 0.971143 61.9808C1.30669 60.8936 1.99261 59.9479 2.92193 59.2912C3.51344 58.8469 4.23083 58.6019 4.9706 58.5917Z" fill="#1D1D1B"/>
<path d="M10.2067 64.3821V64.8312C10.6148 64.5599 11.0959 64.4195 11.5859 64.4288C11.9813 64.4469 12.3681 64.5506 12.7196 64.7327C12.8808 64.8039 13.0175 64.9211 13.1125 65.0696C13.2076 65.2181 13.2567 65.3913 13.2538 65.5675V67.5043C13.2538 67.8383 13.339 68.0303 13.511 68.0553C13.7031 68.02 13.883 67.9361 14.0336 67.8116L14.1805 67.9334C13.8112 68.2021 13.3682 68.3507 12.9116 68.3592C12.7431 68.3759 12.5735 68.3417 12.4247 68.261C12.2759 68.1804 12.1547 68.057 12.0767 67.9067C11.9404 68.0643 11.7717 68.1906 11.5821 68.277C11.3925 68.3635 11.1865 68.408 10.9781 68.4076C10.5761 68.4116 10.1866 68.2685 9.8828 68.0052C9.74026 67.8943 9.62537 67.7518 9.54716 67.589C9.46894 67.4262 9.42952 67.2475 9.43199 67.0669V66.9817C9.43611 66.7982 9.48743 66.6189 9.58102 66.4609C9.6746 66.303 9.80729 66.1719 9.96629 66.0801C10.3109 65.8821 10.7026 65.7812 11.1 65.7879C11.4211 65.784 11.7357 65.8784 12.0016 66.0584V65.3371C12.0016 64.9297 11.853 64.7143 11.5525 64.691C11.4838 64.6826 11.4146 64.6782 11.3454 64.6776C11.0956 64.6795 10.8508 64.7474 10.6358 64.8746C10.3453 65.0416 10.1984 65.247 10.1984 65.4824V65.616H10.003V64.3871L10.2067 64.3821ZM12.0099 67.501V66.758C12.0182 66.5546 11.9496 66.3556 11.8179 66.2003C11.7408 66.1245 11.6487 66.0658 11.5475 66.0278C11.4462 65.9898 11.3381 65.9735 11.2302 65.9799C10.8746 65.9799 10.6842 66.3039 10.6592 66.955V67.0135C10.6514 67.2911 10.7085 67.5667 10.8262 67.8182C10.8667 67.9248 10.9384 68.0166 11.0319 68.0819C11.1255 68.1471 11.2364 68.1826 11.3504 68.1839C11.4415 68.1825 11.5312 68.1612 11.6131 68.1213C11.695 68.0815 11.7672 68.0242 11.8246 67.9535C11.9387 67.8298 12.0045 67.6692 12.0099 67.501Z" fill="#1D1D1B"/>
<path d="M20.567 65.382L20.7022 65.1616C21.074 64.6719 21.5192 64.4275 22.0379 64.4286C22.4665 64.4286 22.7832 64.5672 22.988 64.8444C23.2041 65.1632 23.3112 65.5433 23.2935 65.928V68.157H23.938V68.349H21.4335V68.152H22.0546V66.0632C22.0617 65.783 22.0365 65.5029 21.9795 65.2284C21.9635 65.1386 21.9178 65.0569 21.8496 64.9963C21.7814 64.9357 21.6949 64.8998 21.6038 64.8945H21.5287C21.4007 64.9006 21.2769 64.9413 21.1702 65.0121C21.0634 65.0829 20.9779 65.1813 20.9226 65.2969C20.7353 65.588 20.6372 65.9275 20.6404 66.2736V68.147H21.2849V68.349H18.7804V68.152H19.3765V65.7326C19.3765 65.2551 19.2429 64.9863 18.9724 64.9295C18.942 64.9211 18.9105 64.9167 18.8789 64.9162C18.6563 64.9162 18.4649 65.0626 18.3046 65.3553C18.1202 65.683 18.0241 66.0529 18.0257 66.4289V68.157H18.6585V68.349H16.1541V68.152H16.7752V64.7826H16.1541V64.5622C16.2604 64.5601 16.3666 64.5685 16.4713 64.5873C16.9918 64.5754 17.51 64.5145 18.0191 64.4053V65.382L18.1059 65.2151C18.4632 64.6952 18.9084 64.4353 19.4416 64.4353C19.7062 64.4316 19.9625 64.5276 20.1596 64.7041C20.3718 64.8744 20.5162 65.1148 20.567 65.382Z" fill="#1D1D1B"/>
<path d="M28.1102 68.1572H28.7547V68.3492H26.2502V68.1522H26.8847V64.8095H26.2502V64.5874C26.3533 64.5853 26.4563 64.5943 26.5575 64.6141C27.0775 64.5934 27.595 64.5315 28.1052 64.4288L28.1102 68.1572ZM27.3656 64.539L27.0617 62.7124H27.6845L27.3656 64.539Z" fill="#1D1D1B"/>
<path d="M31.3046 68.0235L31.2578 68.0002V68.4527H31.0608V66.8782H31.2578V67.0451C31.2532 67.197 31.2806 67.3482 31.3381 67.4888C31.3956 67.6295 31.482 67.7565 31.5917 67.8616C31.7867 68.0763 32.0571 68.2073 32.3464 68.2272C32.7138 68.1538 32.8974 68.0119 32.8974 67.8015C32.9022 67.6898 32.8789 67.5787 32.8296 67.4783C32.7803 67.378 32.7066 67.2916 32.6152 67.2271C32.4204 67.0902 32.116 66.8999 31.7019 66.6561C31.5346 66.5539 31.3963 66.4104 31.3004 66.2393C31.2045 66.0683 31.1542 65.8755 31.1543 65.6794C31.16 65.5034 31.2018 65.3306 31.277 65.1715C31.3523 65.0123 31.4594 64.8704 31.5917 64.7544C31.8547 64.5256 32.1952 64.4061 32.5434 64.4204H32.7104C32.9833 64.4709 33.2461 64.5657 33.4885 64.7009L33.587 64.751V64.3486H33.784V65.7511H33.587L33.5636 65.4439C33.5589 65.3234 33.5262 65.2057 33.4683 65.1C33.4103 64.9942 33.3287 64.9033 33.2297 64.8345C33.0491 64.7146 32.837 64.6513 32.6203 64.6525H32.5485C32.4159 64.6482 32.2863 64.6915 32.1828 64.7744C32.0923 64.8511 32.0353 64.9601 32.0242 65.0783C32.0583 65.2294 32.1389 65.366 32.2546 65.469C32.353 65.5703 32.4654 65.6569 32.5885 65.7261C32.6937 65.7829 32.864 65.8714 33.1011 65.9916C33.6788 66.2532 33.9677 66.6233 33.9677 67.1019C33.9664 67.3337 33.8935 67.5593 33.759 67.7481C33.6172 67.9561 33.4247 68.1244 33.1996 68.2373C32.9776 68.3559 32.7301 68.4189 32.4783 68.4209C32.0544 68.4189 31.6426 68.2795 31.3046 68.0235Z" fill="#1D1D1B"/>
<path d="M36.6924 64.3821V64.8312C37.1 64.5601 37.5805 64.4197 38.0699 64.4288C38.4654 64.4467 38.8522 64.5504 39.2036 64.7327C39.3652 64.8037 39.5022 64.9207 39.5976 65.0692C39.6929 65.2177 39.7423 65.3911 39.7396 65.5675V67.5043C39.7396 67.8461 39.8247 68.0297 39.995 68.0553C40.1877 68.02 40.3682 67.9361 40.5193 67.8116L40.6646 67.9334C40.296 68.2023 39.8534 68.3509 39.3973 68.3592C38.9999 68.3592 38.7244 68.2084 38.5708 67.9067C38.4343 68.0641 38.2656 68.1903 38.076 68.2767C37.8864 68.3632 37.6805 68.4078 37.4722 68.4076C37.0702 68.4116 36.6807 68.2685 36.3769 68.0052C36.234 67.8945 36.1188 67.7521 36.0403 67.5893C35.9618 67.4265 35.9221 67.2476 35.9244 67.0669V66.9817C35.9285 66.798 35.98 66.6185 36.0739 66.4605C36.1678 66.3026 36.3009 66.1715 36.4604 66.0801C36.805 65.8821 37.1967 65.7812 37.5941 65.7879C37.9152 65.784 38.2298 65.8784 38.4957 66.0584V65.3371C38.4957 64.9297 38.346 64.7143 38.0465 64.691C37.9773 64.6826 37.9076 64.6782 37.8378 64.6776C37.5886 64.6798 37.3444 64.7477 37.1299 64.8746C36.8383 65.0449 36.6924 65.2475 36.6924 65.4824V65.616H36.4954V64.3871L36.6924 64.3821ZM38.4957 67.501V66.758C38.5033 66.5544 38.4341 66.3554 38.302 66.2003C38.2253 66.1244 38.1335 66.0655 38.0325 66.0276C37.9315 65.9896 37.8236 65.9734 37.7159 65.9799C37.3586 65.9799 37.1683 66.3039 37.1449 66.955V67.0135C37.1379 67.291 37.195 67.5664 37.3119 67.8182C37.3527 67.9247 37.4244 68.0164 37.5179 68.0816C37.6113 68.1468 37.7222 68.1824 37.8362 68.1839C37.9273 68.1826 38.017 68.1613 38.0989 68.1215C38.1809 68.0817 38.253 68.0243 38.3103 67.9535C38.4242 67.8296 38.4899 67.6691 38.4957 67.501Z" fill="#1D1D1B"/>
<path d="M44.5531 65.429C44.8871 64.7778 45.2728 64.4522 45.7102 64.4522C45.8083 64.449 45.9063 64.4574 46.0024 64.4772V64.1851H46.1861V66.0517H46.0024L45.979 65.8063C45.979 65.3611 45.8488 65.1095 45.5883 65.0516C45.529 65.0356 45.4678 65.0272 45.4063 65.0266C45.2905 65.0339 45.1787 65.0717 45.0822 65.1363C44.9857 65.2008 44.908 65.2896 44.857 65.3939C44.6546 65.7095 44.549 66.0775 44.5531 66.4525V68.1572H45.211V68.3492H42.6631V68.1522H43.3092V64.7594H42.6631V64.5273C42.8584 64.5273 42.997 64.5273 43.0655 64.539C43.5644 64.5063 44.0611 64.4456 44.5531 64.357V65.429Z" fill="#1D1D1B"/>
<path d="M50.4289 68.1572H51.075V68.3492H48.5705V68.1522H49.2016V64.8095H48.5688V64.5874C48.6714 64.5853 48.7738 64.5942 48.8744 64.6141C49.3944 64.5934 49.912 64.5315 50.4222 64.4288L50.4289 68.1572ZM49.6858 64.539L49.382 62.7124H50.0031L49.6858 64.539Z" fill="#1D1D1B"/>
<path d="M54.1238 64.3821V64.8312C54.5314 64.5601 55.0119 64.4197 55.5013 64.4288C55.8968 64.4467 56.2836 64.5504 56.635 64.7327C56.7966 64.8037 56.9336 64.9207 57.029 65.0692C57.1243 65.2177 57.1737 65.3911 57.171 65.5675V67.5043C57.171 67.8461 57.2561 68.0297 57.4264 68.0553C57.6191 68.02 57.7995 67.9361 57.9507 67.8116L58.096 67.9334C57.7274 68.2023 57.2848 68.3509 56.8287 68.3592C56.4313 68.3592 56.1558 68.2084 56.0022 67.9067C55.8657 68.0641 55.697 68.1903 55.5074 68.2767C55.3178 68.3632 55.1119 68.4078 54.9036 68.4076C54.5016 68.4116 54.1121 68.2685 53.8083 68.0052C53.6654 67.8945 53.5502 67.7521 53.4717 67.5893C53.3932 67.4265 53.3535 67.2476 53.3558 67.0669V66.9817C53.3599 66.798 53.4114 66.6185 53.5053 66.4605C53.5992 66.3026 53.7323 66.1715 53.8918 66.0801C54.2363 65.8821 54.6281 65.7812 55.0255 65.7879C55.3466 65.784 55.6612 65.8784 55.9271 66.0584V65.3371C55.9271 64.9297 55.7774 64.7143 55.4779 64.691C55.4087 64.6826 55.339 64.6782 55.2692 64.6776C55.02 64.6798 54.7758 64.7477 54.5613 64.8746C54.2697 65.0449 54.1238 65.2475 54.1238 65.4824V65.616H53.9268V64.3871L54.1238 64.3821ZM55.9271 67.501V66.758C55.9347 66.5544 55.8655 66.3554 55.7334 66.2003C55.6567 66.1244 55.5649 66.0655 55.4639 66.0276C55.3629 65.9896 55.255 65.9734 55.1473 65.9799C54.79 65.9799 54.5997 66.3039 54.5763 66.955V67.0135C54.5693 67.291 54.6264 67.5664 54.7433 67.8182C54.7841 67.9247 54.8558 68.0164 54.9493 68.0816C55.0427 68.1468 55.1536 68.1824 55.2676 68.1839C55.3587 68.1826 55.4484 68.1613 55.5303 68.1215C55.6123 68.0817 55.6844 68.0243 55.7417 67.9535C55.8556 67.8296 55.9213 67.6691 55.9271 67.501Z" fill="#1D1D1B"/>
<path d="M64.7296 65.1766C64.7269 64.9227 64.7998 64.6738 64.9389 64.4615C65.078 64.2491 65.277 64.0829 65.5108 63.9839C65.7445 63.8849 66.0024 63.8577 66.2517 63.9056C66.501 63.9535 66.7305 64.0744 66.9109 64.2529C67.0913 64.4315 67.2146 64.6596 67.2651 64.9084C67.3157 65.1572 67.2911 65.4154 67.1946 65.6501C67.098 65.8849 66.9339 66.0857 66.723 66.227C66.5122 66.3684 66.264 66.4438 66.0102 66.4438C65.8426 66.4458 65.6763 66.4145 65.5209 66.3517C65.3655 66.2889 65.2241 66.1958 65.1049 66.0779C64.9858 65.96 64.8913 65.8196 64.8268 65.6649C64.7624 65.5102 64.7293 65.3442 64.7296 65.1766Z" fill="#1D1D1B"/>
<path d="M75.1697 68.0986H75.2916V68.349H72.6736V68.0986H72.7721C72.9421 68.1014 73.1101 68.0614 73.2606 67.9823C73.4112 67.9033 73.5394 67.7877 73.6336 67.6461C73.8641 67.3208 74.0457 66.9637 74.1729 66.5859L77.0114 58.5916H77.1934L80.7681 68.0986H81.5345V68.349H78.1701V68.0986H79.0884L77.6158 64.4804H75.2482L74.4918 66.636C74.427 66.8479 74.3784 67.0645 74.3466 67.2838C74.3635 67.5036 74.4582 67.7102 74.6137 67.8665C74.6859 67.9407 74.7724 67.9996 74.868 68.0395C74.9635 68.0794 75.0662 68.0995 75.1697 68.0986ZM75.3183 64.235H77.5356L76.3669 61.1879L75.3183 64.235Z" fill="#1D1D1B"/>
<path d="M85.3731 58.5916V68.157H86.0059V68.349H83.5298V68.152H84.1292V58.9689H83.5298V58.7602C83.6279 58.7565 83.7261 58.7655 83.822 58.7869C84.344 58.7701 84.8633 58.7047 85.3731 58.5916Z" fill="#1D1D1B"/>
<path d="M91.1099 64.0079H90.0113V68.349H88.779V64.0079H88.4885V63.8075H88.779V60.2128C88.7803 59.801 88.9283 59.4032 89.1965 59.0908C89.3135 58.9332 89.4662 58.8056 89.6421 58.7185C89.818 58.6315 90.012 58.5874 90.2083 58.5899C90.2808 58.5895 90.3533 58.5934 90.4253 58.6016C90.4932 58.6179 90.5588 58.6426 90.6207 58.675C90.6881 58.7157 90.7578 58.7525 90.8294 58.7852L90.8895 58.8336V58.4663H91.0848V60.7103H90.8895V60.1877C90.8895 59.4147 90.6941 58.9722 90.3034 58.852C90.2803 58.8442 90.2561 58.8402 90.2316 58.8403C90.2002 58.8394 90.1692 58.8485 90.1431 58.8662C90.1171 58.8838 90.0972 58.9093 90.0864 58.9388C90.0276 59.0688 89.9942 59.2087 89.9879 59.3512C90.0045 59.4116 90.0124 59.474 90.0113 59.5366V63.8075H91.1099V64.0079Z" fill="#1D1D1B"/>
<path d="M93.8801 64.3822V64.8313C94.2881 64.56 94.7693 64.4196 95.2592 64.429C95.6546 64.4471 96.0414 64.5507 96.3929 64.7328C96.5542 64.8041 96.6909 64.9212 96.7859 65.0697C96.8809 65.2182 96.9301 65.3914 96.9272 65.5677V67.5045C96.9272 67.8384 97.0124 68.0304 97.1843 68.0555C97.3765 68.0201 97.5564 67.9362 97.7069 67.8117L97.8539 67.9336C97.4838 68.1983 97.0416 68.3434 96.5866 68.3493C96.1892 68.3493 95.9109 68.1985 95.7518 67.8968C95.6154 68.0544 95.4467 68.1807 95.2571 68.2671C95.0675 68.3536 94.8615 68.3981 94.6531 68.3977C94.2516 68.402 93.8625 68.2589 93.5595 67.9954C93.4167 67.8846 93.3014 67.7422 93.2229 67.5794C93.1444 67.4166 93.1047 67.2377 93.107 67.057V66.9718C93.1111 66.7883 93.1625 66.609 93.256 66.451C93.3496 66.2931 93.4823 66.162 93.6413 66.0702C93.9864 65.872 94.3788 65.7711 94.7767 65.778C95.0977 65.7747 95.4121 65.869 95.6783 66.0485V65.3272C95.6783 64.9198 95.528 64.7045 95.2275 64.6811C95.1588 64.6727 95.0897 64.6683 95.0204 64.6677C94.7707 64.6698 94.5259 64.7378 94.3108 64.8647C94.0203 65.0317 93.8734 65.2371 93.8734 65.4725V65.6061H93.678V64.3772L93.8801 64.3822ZM95.685 67.5011V66.7581C95.6926 66.5545 95.6234 66.3555 95.4913 66.2005C95.4145 66.1247 95.3227 66.066 95.2217 66.028C95.1207 65.99 95.0129 65.9737 94.9052 65.9801C94.5479 65.9801 94.3576 66.304 94.3326 66.9552V67.0136C94.3247 67.2912 94.3819 67.5668 94.4995 67.8184C94.5401 67.9249 94.6118 68.0168 94.7053 68.082C94.7988 68.1472 94.9098 68.1828 95.0238 68.184C95.1149 68.1826 95.2045 68.1613 95.2865 68.1215C95.3684 68.0817 95.4406 68.0244 95.498 67.9536C95.6124 67.83 95.6787 67.6695 95.685 67.5011Z" fill="#1D1D1B"/>
<path d="M101.998 68.1572H102.642V68.3492H100.138V68.1522H100.772V64.8095H100.138V64.5874C100.241 64.5853 100.344 64.5943 100.445 64.6141C100.965 64.5934 101.483 64.5315 101.993 64.4288L101.998 68.1572ZM101.253 64.539L100.949 62.7124H101.572L101.253 64.539Z" fill="#1D1D1B"/>
<path d="M105.691 64.3821V64.8312C106.099 64.5599 106.58 64.4195 107.07 64.4288C107.466 64.4467 107.853 64.5504 108.204 64.7327C108.365 64.8039 108.502 64.9211 108.597 65.0696C108.692 65.2181 108.741 65.3913 108.738 65.5675V67.5043C108.738 67.8383 108.823 68.0303 108.995 68.0553C109.188 68.02 109.367 67.9361 109.518 67.8116L109.665 67.9334C109.296 68.2018 108.854 68.3504 108.398 68.3592C108 68.3592 107.722 68.2084 107.563 67.9067C107.426 68.0643 107.258 68.1906 107.068 68.277C106.879 68.3635 106.673 68.408 106.464 68.4076C106.063 68.4119 105.674 68.2688 105.371 68.0052C105.228 67.8945 105.112 67.7521 105.034 67.5893C104.955 67.4265 104.916 67.2476 104.918 67.0669V66.9817C104.922 66.7982 104.973 66.6189 105.067 66.4609C105.161 66.303 105.293 66.1719 105.452 66.0801C105.797 65.8819 106.19 65.781 106.588 65.7879C106.909 65.7846 107.223 65.8789 107.489 66.0584V65.3371C107.489 64.9297 107.339 64.7143 107.039 64.691C106.97 64.6826 106.901 64.6782 106.831 64.6776C106.582 64.6797 106.337 64.7477 106.122 64.8746C105.831 65.0416 105.684 65.247 105.684 65.4824V65.616H105.489V64.3871L105.691 64.3821ZM107.496 67.501V66.758C107.504 66.5544 107.434 66.3554 107.302 66.2003C107.226 66.1246 107.134 66.0658 107.033 66.0279C106.932 65.9899 106.824 65.9736 106.716 65.9799C106.359 65.9799 106.169 66.3039 106.144 66.955V67.0135C106.136 67.2911 106.193 67.5667 106.311 67.8182C106.352 67.925 106.424 68.0169 106.518 68.0818C106.612 68.1468 106.724 68.1818 106.838 68.1822C106.929 68.1808 107.019 68.1595 107.101 68.1197C107.183 68.0799 107.255 68.0226 107.312 67.9518C107.425 67.8281 107.49 67.6683 107.496 67.501Z" fill="#1D1D1B"/>
<path d="M113.615 68.0501C113.71 68.0528 113.803 68.0272 113.883 67.9767C113.961 67.9337 114.03 67.8772 114.088 67.8097C114.153 67.7362 114.235 67.6427 114.332 67.5275L114.499 67.6644C114.308 67.8853 114.089 68.0811 113.849 68.2471C113.637 68.3626 113.396 68.4175 113.155 68.4058C112.654 68.4058 112.34 68.2755 112.201 68.0151C112.043 67.6584 111.965 67.2714 111.973 66.8814C111.987 66.8518 111.995 66.8193 111.996 66.7862V65.2618H111.677V65.0548H111.996V61.3364H113.203V65.0531H114.302V65.2601H113.203V67.4541C113.203 67.8531 113.33 68.0518 113.582 68.0518L113.615 68.0501Z" fill="#1D1D1B"/>
<path d="M117.197 64.3821V64.8312C117.604 64.5601 118.085 64.4197 118.574 64.4288C118.97 64.4467 119.356 64.5504 119.708 64.7327C119.869 64.8037 120.006 64.9207 120.102 65.0692C120.197 65.2177 120.247 65.3911 120.244 65.5675V67.5043C120.244 67.8461 120.329 68.0297 120.499 68.0553C120.692 68.02 120.872 67.9361 121.023 67.8116L121.169 67.9334C120.8 68.2023 120.358 68.3509 119.901 68.3592C119.504 68.3592 119.226 68.2084 119.067 67.9067C118.93 68.0641 118.761 68.1903 118.572 68.2767C118.382 68.3632 118.176 68.4078 117.968 68.4076C117.566 68.4119 117.176 68.2687 116.873 68.0052C116.73 67.8945 116.615 67.7521 116.536 67.5893C116.458 67.4265 116.418 67.2476 116.42 67.0669V66.9817C116.424 66.798 116.476 66.6185 116.57 66.4605C116.664 66.3026 116.797 66.1715 116.956 66.0801C117.301 65.882 117.693 65.781 118.09 65.7879C118.411 65.7844 118.725 65.8787 118.992 66.0584V65.3371C118.992 64.9297 118.842 64.7143 118.542 64.691C118.473 64.6826 118.403 64.6782 118.334 64.6776C118.084 64.6798 117.84 64.7477 117.626 64.8746C117.334 65.0449 117.188 65.2475 117.188 65.4824V65.616H116.991V64.3871L117.197 64.3821ZM118.993 67.501V66.758C119.001 66.5544 118.932 66.3554 118.8 66.2003C118.723 66.1244 118.631 66.0655 118.53 66.0276C118.429 65.9896 118.321 65.9734 118.213 65.9799C117.856 65.9799 117.666 66.3039 117.642 66.955V67.0135C117.635 67.291 117.693 67.5664 117.809 67.8182C117.851 67.9257 117.924 68.018 118.019 68.0829C118.114 68.1479 118.227 68.1825 118.342 68.1822C118.433 68.1808 118.523 68.1595 118.605 68.1197C118.687 68.0799 118.759 68.0226 118.816 67.9518C118.927 67.8272 118.989 67.6675 118.993 67.501Z" fill="#1D1D1B"/>
<path d="M125.058 65.429C125.391 64.7778 125.777 64.4522 126.215 64.4522C126.313 64.449 126.411 64.4574 126.507 64.4772V64.1851H126.69V66.0517H126.507L126.483 65.8063C126.483 65.3611 126.353 65.1095 126.093 65.0516C126.033 65.0356 125.972 65.0272 125.911 65.0266C125.795 65.0339 125.683 65.0717 125.587 65.1363C125.49 65.2008 125.412 65.2896 125.361 65.3939C125.158 65.7092 125.053 66.0774 125.058 66.4525V68.1572H125.715V68.3492H123.167V68.1522H123.814V64.7594H123.167V64.5273C123.363 64.5273 123.501 64.5273 123.57 64.539C124.069 64.5063 124.565 64.4456 125.058 64.357V65.429Z" fill="#1D1D1B"/>
<path d="M130.933 68.1572H131.579V68.3492H129.075V68.1522H129.708V64.8095H129.075V64.5874C129.177 64.5853 129.28 64.5942 129.38 64.6141C129.9 64.5934 130.418 64.5315 130.928 64.4288L130.933 68.1572ZM130.19 64.539L129.886 62.7124H130.514L130.19 64.539Z" fill="#1D1D1B"/>
<path d="M134.628 64.3821V64.8312C135.036 64.5601 135.516 64.4197 136.006 64.4288C136.401 64.4467 136.788 64.5504 137.139 64.7327C137.301 64.8037 137.438 64.9207 137.533 65.0692C137.629 65.2177 137.678 65.3911 137.675 65.5675V67.5043C137.675 67.8461 137.76 68.0297 137.931 68.0553C138.123 68.02 138.304 67.9361 138.455 67.8116L138.6 67.9334C138.232 68.2023 137.789 68.3509 137.333 68.3592C136.936 68.3592 136.657 68.2084 136.498 67.9067C136.362 68.0641 136.193 68.1903 136.003 68.2767C135.814 68.3632 135.608 68.4078 135.399 68.4076C134.997 68.4116 134.608 68.2685 134.304 68.0052C134.161 67.8945 134.046 67.7521 133.968 67.5893C133.889 67.4265 133.849 67.2476 133.852 67.0669V66.9817C133.856 66.798 133.907 66.6185 134.001 66.4605C134.095 66.3026 134.228 66.1715 134.388 66.0801C134.732 65.8821 135.124 65.7812 135.521 65.7879C135.842 65.7844 136.157 65.8787 136.423 66.0584V65.3371C136.423 64.9297 136.273 64.7143 135.974 64.691C135.905 64.6826 135.835 64.6782 135.765 64.6776C135.516 64.6798 135.272 64.7477 135.057 64.8746C134.766 65.0449 134.62 65.2475 134.62 65.4824V65.616H134.423V64.3871L134.628 64.3821ZM136.431 67.501V66.758C136.439 66.5544 136.37 66.3554 136.238 66.2003C136.161 66.1244 136.069 66.0655 135.968 66.0276C135.867 65.9896 135.759 65.9734 135.652 65.9799C135.294 65.9799 135.104 66.3039 135.081 66.955V67.0135C135.073 67.291 135.131 67.5664 135.247 67.8182C135.289 67.9246 135.361 68.0162 135.455 68.0811C135.548 68.146 135.659 68.1812 135.773 68.1822C135.865 68.1809 135.954 68.1596 136.036 68.1198C136.118 68.08 136.19 68.0226 136.248 67.9518C136.361 67.8285 136.426 67.6685 136.431 67.501Z" fill="#1D1D1B"/>
</svg>
