<svg width="36" height="30" viewBox="0 0 36 30" fill="none" xmlns="http://www.w3.org/2000/svg">
<path d="M25.9258 7.957V11.2682H31.4913V7.957H25.9258ZM26.9825 9.01375H28.1802V10.2114H26.9825V9.01375ZM30.4346 10.2114H29.2369V9.01375H30.4346V10.2114Z" fill="#014561"/>
<path d="M28.7084 21.4116C29.421 21.4116 30.1336 21.1404 30.6761 20.5979C31.761 19.5129 31.761 17.7475 30.6761 16.6625C29.5911 15.5776 27.8256 15.5776 26.7407 16.6625C25.6558 17.7475 25.6558 19.5129 26.7407 20.5979C27.2832 21.1404 27.9958 21.4116 28.7084 21.4116ZM27.4879 17.4097C27.8244 17.0732 28.2664 16.905 28.7084 16.905C28.9791 16.905 29.2496 16.9689 29.4962 17.0951L28.7333 17.8581L29.4806 18.6053L30.2435 17.8423C30.5759 18.4913 30.4715 19.3081 29.9289 19.8507C29.2559 20.5236 28.1609 20.5236 27.488 19.8507C26.815 19.1777 26.815 18.0826 27.4879 17.4097Z" fill="#014561"/>
<path d="M25.8904 23.7378H27.0176V24.7946H25.8904V23.7378Z" fill="#014561"/>
<path d="M28.1448 23.7378H29.272V24.7946H28.1448V23.7378Z" fill="#014561"/>
<path d="M30.3992 23.7378H31.5264V24.7946H30.3992V23.7378Z" fill="#014561"/>
<path d="M17.9649 11.2682V10.141H24.1997V9.0842H17.9649V7.957H14.6538V9.0842H12.9277V10.141H14.6538V11.2682H17.9649ZM15.7105 9.01375H16.9082V10.2114H15.7105V9.01375Z" fill="#014561"/>
<path d="M7.81994 14.6498V7.957H4.50879V14.6498H7.81994ZM5.56554 9.01375H6.76319V13.593H5.56554V9.01375Z" fill="#014561"/>
<path d="M36 7.957H33.7456V5.7026H30.364V3.37775H30.9628V2.321H29.2368V0.594971H28.18V2.321H26.454V3.37775H27.0528V5.7026H23.636V6.75935H32.6888V12.4658H12.7088L9.32717 15.8474H3.31115V6.75935H22.5088V5.7026H6.69276V3.97657H5.63601V5.7026H2.2544V16.9042H4.50881V20.2858H5.63601V22.0118H6.69276V20.2858H8.98239V19.229H7.81996V16.9042H9.76481L13.1464 13.5226H23.6712V23.7378H15.182V24.7946H23.6712V28.2466H1.05675V24.7946H3.3816V27.049H11.2016V24.7946H14.0548V23.7378H0V29.3034H33.7456V15.777H36V7.957ZM28.1096 3.37775H29.3072V5.7026H28.1096V3.37775ZM6.76321 19.229H5.56556V16.9042H6.76321V19.229ZM10.1448 25.9922H4.43836V24.7946H10.1448V25.9922ZM24.728 28.2466V13.5226H32.6888V28.2466H24.728ZM34.9432 14.7202H33.7456V9.01376H34.9432V14.7202Z" fill="#014561"/>
</svg>
