<svg width="35" height="36" viewBox="0 0 35 36" fill="none" xmlns="http://www.w3.org/2000/svg">
<path d="M34.9208 17.2362L32.4473 13.4942L32.7207 9.01669C32.7267 8.92289 32.7048 8.82941 32.658 8.74794C32.6111 8.66648 32.5412 8.60065 32.4571 8.55868L28.4403 6.55985L26.4415 2.54305C26.3992 2.45923 26.3333 2.38955 26.252 2.34254C26.1708 2.29553 26.0775 2.27323 25.9838 2.27837L21.5062 2.5518L17.764 0.0793817C17.6857 0.0276067 17.5939 0 17.5001 0C17.4062 0 17.3145 0.0276067 17.2362 0.0793817L13.4945 2.55317L9.01669 2.27973C8.92284 2.27327 8.82919 2.29486 8.74764 2.34174C8.66609 2.38863 8.60031 2.4587 8.55868 2.54305L6.56067 6.5604L2.54305 8.55868C2.45889 8.60049 2.38892 8.66619 2.34189 8.74755C2.29486 8.82892 2.27286 8.92234 2.27864 9.01614L2.55208 13.4937L0.0793817 17.2362C0.0276067 17.3145 0 17.4063 0 17.5001C0 17.5939 0.0276067 17.6857 0.0793817 17.764L2.5529 21.506L2.27946 25.9835C2.2735 26.0773 2.29532 26.1708 2.3422 26.2522C2.38909 26.3337 2.45895 26.3995 2.54305 26.4415L6.55985 28.4403L8.55868 32.4571C8.60072 32.5412 8.6665 32.6111 8.74786 32.6581C8.82922 32.7052 8.92259 32.7273 9.01641 32.7218L13.494 32.4484L17.2359 34.9222C17.3142 34.9739 17.406 35.0014 17.4998 35.0014C17.5936 35.0014 17.6854 34.9739 17.7637 34.9222L21.5054 32.4484L25.9832 32.7218C26.077 32.7267 26.1702 32.7043 26.2515 32.6573C26.3329 32.6103 26.3988 32.5408 26.4415 32.4571L28.4398 28.4406L32.4571 26.4415C32.5413 26.3997 32.6113 26.334 32.6583 26.2526C32.7053 26.1713 32.7273 26.0778 32.7215 25.984L32.4481 21.5065L34.9216 17.7645C34.9734 17.6861 35.0009 17.5942 35.0008 17.5002C35.0006 17.4063 34.9728 17.3145 34.9208 17.2362ZM31.5605 21.1117C31.5033 21.1982 31.4758 21.301 31.4823 21.4045L31.7462 25.7248L27.8694 27.6539C27.7761 27.7002 27.7005 27.7758 27.6542 27.8691L25.7256 31.7462L21.4053 31.4818C21.3018 31.4753 21.1989 31.5029 21.1125 31.5603L17.5001 33.9479L13.8885 31.5605C13.8103 31.5088 13.7185 31.4812 13.6247 31.4812H13.5954L9.27508 31.7454L7.34653 27.8688C7.30016 27.7756 7.2246 27.7 7.13133 27.6537L3.25399 25.7254L3.51786 21.4051C3.52437 21.3015 3.49692 21.1987 3.43966 21.1122L1.05227 17.5001L3.43966 13.8885C3.49692 13.802 3.52437 13.6992 3.51786 13.5957L3.25399 9.27536L7.13079 7.34626C7.22411 7.29997 7.2997 7.22439 7.34598 7.13106L9.27454 3.25399L13.5948 3.51841C13.6984 3.5244 13.8011 3.49689 13.8877 3.43993L17.5001 1.05227L21.1116 3.43966C21.1983 3.49672 21.3012 3.52425 21.4048 3.51813L25.7251 3.25399L27.6536 7.13052C27.7 7.22378 27.7756 7.29934 27.8688 7.34571L31.7462 9.27481L31.4823 13.5951C31.4758 13.6987 31.5033 13.8015 31.5605 13.888L33.9479 17.5001L31.5605 21.1117Z" fill="#014561"/>
<path d="M17.5002 5.53741C15.1342 5.53741 12.8213 6.23903 10.854 7.55353C8.88674 8.86802 7.35342 10.7364 6.44798 12.9223C5.54254 15.1082 5.30563 17.5136 5.76722 19.8341C6.22881 22.1547 7.36817 24.2863 9.04121 25.9593C10.7142 27.6324 12.8458 28.7717 15.1664 29.2333C17.487 29.6949 19.8923 29.458 22.0782 28.5526C24.2642 27.6471 26.1325 26.1138 27.447 24.1465C28.7615 22.1792 29.4631 19.8663 29.4631 17.5003C29.4595 14.3287 28.198 11.288 25.9553 9.04526C23.7126 6.80257 20.6719 5.54103 17.5002 5.53741ZM17.5002 28.5062C15.3235 28.5062 13.1956 27.8607 11.3857 26.6513C9.57582 25.442 8.16517 23.7231 7.33216 21.7121C6.49915 19.701 6.2812 17.4881 6.70586 15.3532C7.13053 13.2182 8.17873 11.2572 9.71793 9.71799C11.2571 8.17879 13.2182 7.13058 15.3531 6.70592C17.488 6.28126 19.7009 6.49921 21.712 7.33222C23.7231 8.16522 25.4419 9.57587 26.6513 11.3858C27.8606 13.1957 28.5061 15.3236 28.5061 17.5003C28.5025 20.4181 27.3418 23.2154 25.2786 25.2786C23.2154 27.3418 20.4181 28.5025 17.5002 28.5062Z" fill="#014561"/>
<path d="M23.1032 13.9458C23.212 13.848 23.3003 13.7654 23.3653 13.7005C24.204 12.8621 24.2198 11.4896 23.3653 10.6353C22.5109 9.78074 21.1385 9.79659 20.3001 10.6353C20.2251 10.7102 20.1269 10.8162 20.0086 10.9489C18.9491 10.3274 17.7645 10.0003 16.5609 10.0003C16.3344 10.0003 16.1508 10.1839 16.1508 10.4105C16.1508 10.637 16.3344 10.8206 16.5609 10.8206C17.5846 10.8206 18.5587 11.0763 19.463 11.5811C16.9151 14.5971 10.4028 22.9334 10.0871 23.3376C9.9596 23.5008 9.97395 23.7336 10.1204 23.8801C10.2669 24.0266 10.4997 24.0409 10.663 23.9134C11.0696 23.5959 19.5044 17.0065 22.4735 14.4918C23.6265 16.4663 23.2877 19.1471 22.0065 20.9863C21.1217 20.163 19.9952 19.4449 18.7575 19.4449C17.5623 19.4449 16.59 20.4172 16.59 21.6124C16.59 22.8075 17.5623 23.7798 18.7575 23.7798C20.5732 23.7798 21.785 22.5135 22.0617 22.2201C22.7811 23.0302 23.2317 23.7892 23.2365 23.7973C23.3344 23.9637 23.5766 24.0731 23.798 23.9429C23.9933 23.828 24.0584 23.5766 23.9435 23.3814C23.9 23.3073 23.3979 22.4656 22.5914 21.5794C24.2117 19.4146 24.4761 16.084 23.1032 13.9458ZM20.8801 11.2153C21.4031 10.6922 22.255 10.685 22.7852 11.2153C23.3156 11.7456 23.3083 12.5976 22.7854 13.1203C22.7447 13.161 22.6935 13.2096 22.6328 13.2654C22.4003 12.9722 22.1773 12.7438 22.0005 12.5801L22.1228 12.4578C22.283 12.2976 22.283 12.038 22.1228 11.8778C21.9627 11.7176 21.703 11.7176 21.5428 11.8778L20.6641 12.7564C20.5039 12.9166 20.5039 13.1763 20.6641 13.3365C20.8243 13.4966 21.084 13.4967 21.2442 13.3365L21.4198 13.1609C21.578 13.3055 21.7916 13.5211 22.0145 13.8061C20.2428 15.3114 16.1492 18.5624 12.8202 21.1804C15.9756 17.168 20.0506 12.0448 20.8801 11.2153ZM18.7575 22.9595C18.0147 22.9595 17.4103 22.3552 17.4103 21.6123C17.4103 20.8695 18.0147 20.2652 18.7575 20.2652C19.3649 20.2652 20.312 20.5127 21.4912 21.6291C20.5837 22.6057 19.5869 22.9595 18.7575 22.9595Z" fill="#014561"/>
</svg>
