<svg width="36" height="36" viewBox="0 0 36 36" fill="none" xmlns="http://www.w3.org/2000/svg">
<path d="M28.1021 21.6992L30.6107 19.722L30.5965 16.526L31.9926 13.6488L30.6036 10.7717L30.6178 7.57559L28.1091 5.59134L26.7343 2.70709L23.6162 2.00551L21.1217 0L18.0036 0.729921L14.8926 0L12.3981 2.00551L9.28001 2.70709L7.90521 5.59134L5.38946 7.57559L5.40363 10.7717L4.00757 13.6488L5.40363 16.526L5.38946 19.722L7.89812 21.7063L8.90442 23.8252L4.82962 32.563L9.6556 31.826L12.1926 36L16.4162 26.9362L17.9965 26.5677L19.2438 26.8583L23.5099 36L26.0469 31.826L30.8729 32.563L26.9399 24.1299L28.1021 21.6992ZM12.058 33.5409L10.2438 30.5575L6.79969 31.0819L9.77607 24.6898L12.3981 25.278L14.8926 27.2835L12.058 33.5409ZM18.0036 25.3701L15.1761 26.0362L12.9154 24.215L10.0808 23.5772L8.83355 20.9551L6.55166 19.1551L6.56584 16.2496L5.29733 13.6417L6.56584 11.0268L6.55166 8.12126L8.83355 6.32126L10.0808 3.69921L12.9154 3.06142L15.1761 1.24016L18.0036 1.89921L20.8312 1.24016L23.0918 3.06142L25.9265 3.69921L27.1737 6.32126L29.4556 8.12126L29.4414 11.0268L30.7099 13.6346L29.4414 16.2425L29.4556 19.148L27.1737 20.948L25.9265 23.5701L23.0918 24.2079L20.8312 26.0291L18.0036 25.3701ZM28.9028 31.089L25.4588 30.5646L23.6446 33.5409L20.6824 27.1913L21.1147 27.2906L23.6091 25.285L25.9548 24.7606L28.9028 31.089Z" fill="#014561"/>
<path d="M18.0036 3.60709C12.469 3.60709 7.96191 8.11417 7.96191 13.6488C7.96191 19.1835 12.469 23.6905 18.0036 23.6905C23.5383 23.6835 28.0454 19.1835 28.0454 13.6488C28.0454 8.11417 23.5383 3.60709 18.0036 3.60709ZM18.0036 22.5283C13.1068 22.5283 9.12412 18.5457 9.12412 13.6488C9.12412 8.75197 13.1068 4.76929 18.0036 4.76929C22.9005 4.76929 26.8832 8.75197 26.8832 13.6488C26.8832 18.5457 22.9005 22.5283 18.0036 22.5283Z" fill="#014561"/>
<path d="M25.5508 11.1969H19.7823L18.0035 5.71182L16.2248 11.1969H10.4563L15.1193 14.5843L13.3406 20.0693L18.0035 16.6819L22.6665 20.0693L20.8878 14.5843L25.5508 11.1969ZM18.0035 15.2433L15.5445 17.0291L16.4799 14.1378L14.0209 12.352H17.0539L17.9894 9.46064L18.9248 12.352H21.9579L19.4988 14.1378L20.4626 17.0291L18.0035 15.2433Z" fill="#014561"/>
</svg>
